<svg xmlns="http://www.w3.org/2000/svg" xmlns:xlink="http://www.w3.org/1999/xlink" viewBox="127.15 161.22 1024.89 966.54">
	<path fill="#E5E5E4" d="M378.496 161.516C380.501 161.141 382.82 161.208 384.866 161.248C399.078 161.521 413.227 165.569 423.211 176.2C430.103 183.54 433.744 192.959 433.354 203.059C432.383 228.213 408.2 248.56 391.135 264.246C399.31 270.353 406.736 276.994 413.28 284.851C441.777 319.754 455.371 364.481 451.117 409.338C482.834 388.629 516.255 372.29 553.289 363.657C580.456 357.325 608.338 355.599 636.161 355.535C711.474 355.363 767.339 369.187 831.49 409.013C830.385 389.381 831.064 369.506 835.199 350.239C842.529 316.086 858.805 284.016 888.771 264.639C872.465 248.977 851.246 229.589 847.314 206.282C845.811 197.374 847.744 188.842 853.057 181.52C861.004 170.571 873.239 164.629 886.384 162.545C932.924 155.167 988.927 183.207 1025.74 209.898C1088.31 255.265 1136.51 329.146 1148.62 405.872C1156.98 458.868 1151.14 516.366 1118.81 560.692C1119.03 575.541 1119.57 590.772 1116.7 605.412C1111.51 631.911 1092.55 649.6 1076.65 670.145C1056.75 695.852 1041.03 720.305 1013.35 738.727C1024.94 742.39 1038.25 745.902 1047.88 753.596C1057.54 761.32 1062.33 773.75 1070.36 783.045C1077.55 791.356 1086.27 798.425 1093.84 806.41C1117.65 831.503 1128.74 861 1132.01 895.104C1137.13 948.451 1132.65 993.662 1097.06 1036.74C1084.98 1051.36 1069.03 1067.94 1048.98 1069.7C1033.44 1071.07 1022.53 1063.51 1011.14 1054.1C997.121 1076.85 979.745 1098.12 957.28 1112.96C943.009 1122.39 924.026 1130.53 906.579 1126.86C896.505 1124.75 889.212 1119.18 883.652 1110.74C883.265 1110.08 882.884 1109.41 882.54 1108.72C874.349 1092.32 879.254 1075.16 884.618 1058.72C856.351 1083.9 821.934 1114.38 782.148 1115.85C772.075 1116.22 761.231 1113.98 753.758 1106.75C744.883 1098.15 743.966 1085 743.612 1073.39C748.035 1065.28 753.096 1057.57 757.311 1049.3C770.067 1024.3 777.122 998.39 783.153 971.081C768.866 961.365 759.693 950.249 750.493 935.838C682.001 965.296 599.73 955.2 529.898 936.608C522.271 950.142 509.401 960.692 497.982 970.908C499.019 990.273 503.923 1011.02 511.917 1028.72C519.633 1045.8 536.229 1063.04 536.256 1082.52C536.268 1090.89 532.648 1099.42 526.532 1105.15C518.995 1112.22 507.7 1115.15 497.544 1114.86C457.395 1113.7 420.059 1082.4 393.718 1054.38C399.705 1070.07 404.47 1089.33 399.098 1105.88C396.547 1113.73 391.563 1119.7 384.095 1123.3C371.56 1129.35 357.68 1127.75 344.945 1123.3C310.849 1111.36 284.394 1083.42 268.889 1051.46C263.195 1058.28 256.701 1064.33 248.317 1067.65C238.323 1071.6 227.515 1070.29 217.884 1066.03C187.882 1052.78 165.572 1014.14 154.166 984.267C150.639 975.03 147.995 965.607 146.674 955.799C142.617 925.664 146.375 871.137 159.063 843.198C166.324 827.211 178.274 812.047 190.949 799.997C197.005 794.238 203.678 788.857 209.094 782.483C216.853 773.352 220.995 762.768 230.879 755.327C241.519 747.316 254.62 742.985 266.95 738.338C258.976 733.378 251.472 727.868 244.651 721.398C229.272 706.809 218.631 689.454 206.076 672.622C198.973 663.1 190.261 655.09 182.645 646.026C161.913 621.354 160.854 591.39 160.086 560.67C139.62 534.141 130.862 502.552 128.026 469.587C121.412 392.701 152.945 315.07 201.937 256.895C246.292 204.226 309.366 167.454 378.496 161.516Z"/>
	<path fill="#1B191A" d="M378.104 186.512C386.749 186.019 396.84 186.61 404.377 191.308C407.19 193.061 409.587 195.592 410.147 198.966C412.286 211.861 377.628 245.23 368.779 255.391C363.27 261.843 358.086 268.565 353.247 275.532C338.839 296.12 330.012 317.558 334.534 343.034C325.167 360.183 320.425 375.368 319.922 394.935C357.595 369.737 352.018 352.956 360.951 313.614C362.805 305.447 365.645 293.889 373.421 289.341C376.015 287.824 378.817 287.421 381.724 288.187C391.762 290.829 400.206 304.96 404.893 313.393C427.968 354.901 428.483 400.083 415.507 444.821C401.143 494.34 369.84 525.955 325.789 550.234L332.751 596.741C330.267 602.498 327.271 608.014 324.366 613.566C328.498 622.05 333.914 629.689 339.547 637.216C344.584 627.58 349.613 617.628 356.373 609.068C364.151 599.217 374.615 591.365 379.916 579.698C384.574 569.447 384.423 557.521 386.235 546.58C387.747 537.452 390.586 528.449 393.902 519.83C413.203 469.674 454.667 426.392 503.836 404.73C584.468 369.208 684.134 368.654 765.905 400.602C785.841 408.391 805.75 418.11 822.846 431.101C852.685 453.777 878.154 491.325 889.314 527.139C894.635 544.215 894.169 562.772 901.205 579.316C910.352 600.824 929.629 615.502 939.668 638.377C944.126 630.752 949.16 623.529 954.341 616.384C948.459 594.654 950.525 575.837 954.068 553.971C943.236 544.991 931.189 537.587 920.28 528.689C888.99 503.165 868.344 468.2 859.658 428.914C850.442 387.236 856.025 342.321 879.301 306.07C883.561 299.434 891.291 288.602 899.603 287.117C902.155 286.661 904.538 287.272 906.617 288.807C917.494 296.841 917.75 317.773 919.232 329.89C922.747 358.624 938.788 378.409 960.933 395.732C957.516 372.836 953.509 358.42 942.486 337.794C965.326 283.096 871.719 230.43 871.061 200.27C870.998 197.369 871.93 194.975 873.954 192.892C878.885 187.819 887.32 186.867 894.068 186.601C947.351 184.498 997.792 213.96 1035.87 248.917C1087.86 296.642 1124.99 364.913 1127.96 436.249C1129.71 478.34 1122.69 518.14 1093.31 550.096C1097.15 566.976 1097.92 584.334 1093.62 601.213C1090.09 615.043 1083.92 627.162 1072.73 636.264C1067.76 640.311 1062.58 644.1 1058.59 649.188C1053.09 656.203 1049.44 664.675 1044.68 672.212C1033.49 689.943 1016.17 708.616 998.237 719.774C989.901 724.96 980.155 727.337 971.762 732.473C958.823 740.392 947.525 750.491 933.622 756.944C920.29 763.131 903.282 762.873 891.06 770.68C889.427 771.723 888.356 772.662 887.952 774.574C889.415 775.826 890.677 775.952 892.588 775.781C899.259 775.184 906.354 772.085 912.665 769.92C923.667 766.147 934.616 762.143 945.868 759.168C954.702 756.833 963.707 755.231 972.862 755.089C991.308 754.803 1023.64 761.723 1036.08 776.552C1041.42 782.917 1044.19 791.13 1049.68 797.612C1056.22 805.327 1065.02 811.157 1072.24 818.27C1086.3 832.133 1104.73 856.408 1106.69 876.718C1107.44 884.476 1105.82 892.284 1106.52 900.069C1107.58 911.891 1110.66 923.101 1110.74 935.11C1110.97 969.406 1096.03 1006.05 1071.9 1030.45C1065.82 1036.59 1050.86 1049.24 1041.93 1048.95C1039.78 1048.88 1037.89 1048.12 1036.44 1046.5C1032.88 1042.52 1033.32 1037.25 1033.75 1032.34C1035.03 1025.15 1037.47 1018.06 1038.29 1010.8C1041.26 984.349 1037.95 936.272 1025.83 912.76C1020.87 903.127 1014.04 894.583 1008.14 885.525C1001.7 875.635 996.082 865.268 990.451 854.903L965.575 855.001C970.05 868.243 977.24 879.698 984.284 891.668C1001.43 920.804 1011.27 949.465 1007.14 983.676C1002.18 1024.75 984.074 1061.41 951.046 1086.97C940.861 1094.85 923.654 1107.3 910.095 1105.14C907.638 1104.75 905.368 1103.64 903.916 1101.57C901.519 1098.14 902.809 1090.89 903.416 1086.86C905.813 1070.95 911.096 1055.59 914.889 1039.99C919.39 1021.46 922.55 1002.76 925.816 983.995C920.612 975.634 915.343 967.268 911.331 958.25C905.239 944.556 901.701 929.555 897.644 915.152L878.199 913.611C883.773 937.634 890.132 963.557 888.512 988.418C886.732 1015.75 871.48 1040.22 851.209 1057.93C833.693 1073.22 801.593 1094.4 777.26 1092.07C774.752 1091.83 771.892 1091.04 770.462 1088.76C769.047 1086.51 769.155 1082.97 769.51 1080.45C771.51 1066.24 784.088 1054.59 789.341 1041.41C799.464 1016 803.551 988.109 807.256 961.185C787.097 942.79 775.738 929.57 762.911 905.091C700.681 933.435 630.522 939.214 564.493 921.433C549.142 917.396 534.289 911.697 519.439 906.146C514.47 914.331 509.841 922.838 504.077 930.5C495.358 942.092 484.025 951.277 473.058 960.629C474.479 985.11 479.013 1010.45 487.831 1033.41C493.068 1047.05 512.594 1071.91 511.097 1085.48C510.871 1087.53 510.037 1089.45 508.355 1090.73C504.54 1093.62 498.855 1092.97 494.453 1092.13C460.524 1085.67 426.029 1059.82 406.978 1031.59C389.201 1005.25 391.304 982.779 396.087 952.808C398.117 939.687 400.389 926.605 402.903 913.568C396.266 913.84 389.602 914.567 382.978 915.103C380.591 927.911 377.659 941.223 372.916 953.367C367.911 966.185 356.73 976.818 356.363 991.259C355.718 1016.65 383.208 1081.57 376.267 1099.02C375.381 1101.25 373.654 1102.91 371.416 1103.78C365.454 1106.08 357.138 1102.34 351.659 1099.88C320.223 1085.86 295.627 1059.95 283.261 1027.82C278.148 1014.34 276.905 1000.7 274.968 986.57C273.808 978.112 271.401 969.493 271.582 960.924C271.757 952.684 274.106 944.356 276.625 936.571C280.876 923.429 286.341 910.304 292.927 898.159C300.762 883.711 309.742 870.069 316.449 855.006L291.439 854.72C285.982 864.877 280.344 875.049 273.98 884.671C266.158 896.499 254.706 908.099 250.175 921.625C243.186 942.485 240.86 967.458 240.88 989.39C240.885 995.16 241.063 1001.07 241.836 1006.8C243.248 1017.26 248.939 1033.49 244.028 1043.7C242.982 1045.87 241.411 1047.35 239.045 1047.99C234.208 1049.29 226.174 1044.41 222.173 1041.88C196.934 1025.91 177.813 989.707 171.593 961.14C167.124 940.611 171.165 921.014 172.331 900.461C172.956 889.455 172.407 877.982 174.871 867.199C176.604 859.861 179.635 852.893 183.82 846.623C194.217 830.762 209.182 818.693 222.124 805.045C230.12 796.614 235.342 786.463 242.829 777.763C259.009 758.959 290.663 754.471 314.043 755.379C324.409 755.781 340.375 763.989 348.944 762.188L349.063 761.468C344.519 756.245 337.982 752.255 332.282 748.4C324.119 742.881 315.907 737.208 307.324 732.359C292.296 723.87 277.191 717.047 263.989 705.645C253.472 696.605 244.405 686.003 237.106 674.211C232.371 666.464 228.223 658.152 222.479 651.082C218.324 645.968 213.345 641.882 208.367 637.608C203.724 633.622 199.246 629.66 195.613 624.699C184.851 610.003 182.192 588.654 184.411 570.998C185.206 564.669 187.402 556.364 185.298 550.173C182.646 542.37 174.334 537.482 169.35 531.23C157.771 516.706 153.573 486.407 152.216 468.098C146.971 397.294 174.36 325.783 220.356 272.487C260.571 225.887 315.669 191.125 378.104 186.512Z"/>
	<path fill="#DE2625" d="M506.268 428.814C533.774 403.722 622.931 400.538 659.492 402.231C672.291 402.849 685.051 404.1 697.727 405.979C713.825 408.37 766.803 418.273 776.337 429.441C776.977 430.191 777.294 430.954 777.587 431.88C777.451 432.612 777.409 433.497 777.032 434.14C764.015 447.16 752.746 466.435 745.225 483.262C737.264 501.073 737.428 513.576 721.07 526.399C758.422 505.841 761.95 452.985 792.983 439.688C796.352 441.285 799.652 442.793 802.685 444.987C834.418 464.415 862.039 503.683 870.934 539.68C871.9 543.519 872.633 547.413 873.131 551.341C875.56 563.513 877.596 575.639 878.983 587.975L879.47 588.585C896.196 609.231 921.891 627.978 919.09 657.77C916.735 682.826 900.405 704.598 885.839 724.146C873.229 744.393 840.977 768.327 818.034 774.62C797.085 782.415 772.852 788.794 754.958 802.698C725.395 834.396 711.647 864.099 697.678 904.707C658.681 912.669 619.443 910.683 580.562 903.432C564.163 862.748 554.571 830.587 519.643 800.106C507.105 793.694 494.264 787.891 481.167 782.716C480.984 782.677 480.799 782.644 480.617 782.599C473.383 780.791 465.965 776.877 459.19 773.749C430.653 760.574 405.323 744.893 388.271 717.625C385.308 713.692 382.334 709.756 379.594 705.662C359.769 676.035 349.482 642.462 376.807 613.817C384.141 606.13 393.981 599.593 399.027 590.031C404.303 580.034 404.413 567.943 406.586 557.035C406.93 552.769 407.729 548.444 408.705 544.28C418.076 504.256 448.904 463.078 483.805 441.415C486.955 438.72 491.616 437.278 495.417 435.751C504.256 444.705 512.037 454.645 518.607 465.376C531.698 487.074 537.625 504.433 558.997 520.376C545.843 503.455 542.417 482.67 531.802 464.342C528.114 457.974 523.796 451.641 519.325 445.806C515.255 440.493 508.851 434.888 506.268 428.814Z"/>
	<path fill="#AC161E" d="M374.986 654.912L375.429 655.675C384.466 671.499 385.667 681.975 398.229 697.354C408.729 710.21 421.552 721.045 435.261 730.341C455.112 743.8 477 753.881 498.694 763.943C523.601 775.496 548.568 786.998 575.065 794.452C626.362 809.163 681.051 806.803 730.89 787.729C746.463 781.628 761.025 773.419 776.043 766.124C793.285 757.749 810.944 750.322 827.682 740.931C853.062 726.692 876.162 708.295 890.283 682.323C893.824 675.811 896.549 668.736 899.452 661.92C898.495 674.313 897.333 687.642 891.567 698.899C888.704 704.487 884.597 709.955 882.946 716.048C882.201 718.797 881.97 720.404 883.986 722.621C884.491 723.176 885.257 723.693 885.839 724.146C873.229 744.393 840.977 768.327 818.034 774.62C797.085 782.415 772.852 788.794 754.958 802.698C725.395 834.396 711.647 864.099 697.678 904.707C658.681 912.669 619.443 910.683 580.562 903.432C564.163 862.748 554.571 830.587 519.643 800.106C507.105 793.694 494.264 787.891 481.167 782.716C480.984 782.677 480.799 782.644 480.617 782.599C473.383 780.791 465.965 776.877 459.19 773.749C430.653 760.574 405.323 744.893 388.271 717.625C390.411 714.765 390.788 713.766 390.248 710.159C388.673 699.643 383.615 689.41 380.289 679.333C377.653 671.346 376.191 663.217 374.986 654.912Z"/>
	<path fill="#DE2625" d="M754.958 802.698C752.319 802.331 748.073 802.166 746.335 799.87L746.568 798.337C753.867 788.153 787.486 776.011 800.039 773.379C805.88 772.154 812.825 771.178 818.034 774.62C797.085 782.415 772.852 788.794 754.958 802.698Z"/>
	<path fill="#DE2625" d="M486.386 778.05C506.009 780.82 524.022 785.666 538.486 800.011C532.204 799.935 525.92 799.789 519.643 800.106C507.105 793.694 494.264 787.891 481.167 782.716C482.697 780.807 484.432 779.507 486.386 778.05Z"/>
	<path fill="#E05C5A" d="M506.268 428.814C533.774 403.722 622.931 400.538 659.492 402.231C672.291 402.849 685.051 404.1 697.727 405.979C713.825 408.37 766.803 418.273 776.337 429.441C776.977 430.191 777.294 430.954 777.587 431.88C777.451 432.612 777.409 433.497 777.032 434.14C764.825 431.797 752.999 425.722 740.82 422.632C691.875 410.216 640.167 403.394 589.886 411.167C574.842 413.492 559.754 416.759 544.999 420.486C532.849 423.555 519.584 428.546 507.009 428.808C506.762 428.814 506.515 428.812 506.268 428.814Z"/>
	<path fill="#E05C5A" d="M802.685 444.987C834.418 464.415 862.039 503.683 870.934 539.68C871.9 543.519 872.633 547.413 873.131 551.341C872.435 550.904 872.57 551.01 871.712 550.316C861.499 542.067 846.233 504.739 837.851 491.291C834.187 485.413 829.017 480.41 824.35 475.326C817.325 467.672 803.799 455.62 802.685 444.987Z"/>
	<path fill="#E05C5A" d="M483.805 441.415C483.726 443.458 483.333 444.655 482.214 446.382C478.335 452.361 472.738 457.46 467.806 462.581C458.709 472.029 449.331 481.553 441.59 492.166C439.059 495.637 436.66 499.269 434.728 503.113C429.645 513.223 415.415 550.856 409.376 555.629C408.442 556.367 407.7 556.7 406.586 557.035C406.93 552.769 407.729 548.444 408.705 544.28C418.076 504.256 448.904 463.078 483.805 441.415Z"/>
	<path fill="#1B191A" d="M813.462 535.872C820.37 534.815 826.98 536.737 833.569 538.582C833.723 544.051 834.134 549.522 834.463 554.983L814.92 554.99C824.738 573.05 833.161 591.767 833.063 612.733C833.045 635.026 824.132 656.391 808.302 672.089C795.786 684.267 779.119 691.637 761.536 691.344C744.116 691.053 729.805 682.82 717.873 670.635C707.216 656.337 704.966 640.864 705.54 623.468C699.352 619.463 693.548 615.159 690.486 608.179C684.288 594.048 692.377 575.757 697.671 562.511C699.446 573.394 701.377 584.25 703.464 595.077C736.444 564.78 767.065 540.75 813.462 535.872Z"/>
	<path fill="#2EB6B2" d="M785.261 563.044C788.52 564.289 791.42 565.718 794.223 567.823C805.362 576.191 810.651 590.047 812.415 603.463C814.807 621.649 811.527 640.53 800.117 655.263C792.194 665.494 780.576 673.319 767.547 674.859C756.483 676.168 744.806 673.35 736.026 666.422C730.079 661.194 724.858 655.066 719.744 649.038C726.47 652.648 733.231 655.921 740.95 656.605C750.756 657.435 760.489 654.329 768.001 647.972C776.585 640.575 781.882 630.074 782.728 618.775C784.137 601.764 776.469 588.476 765.87 575.889C772.26 571.497 778.725 567.215 785.261 563.044Z"/>
	<path fill="#E5E5E4" d="M734.201 600.405C737.122 601.269 740.421 601.991 743.103 603.468C745.319 604.688 747.044 606.235 747.645 608.765C748.486 612.308 745.663 615.71 743.777 618.394C741.902 619.439 739.186 620.229 737.042 619.581C735.524 619.122 734.443 617.795 733.766 616.421C731.191 611.19 732.354 605.578 734.201 600.405Z"/>
	<path fill="#1B191A" d="M452.353 537.108C460.75 536.717 469.245 536.231 477.618 537.196C516.65 541.698 546.011 569.348 574.43 593.846C577.21 584.435 579.886 574.993 582.459 565.523C587.34 579.127 590.128 593.393 590.73 607.834C587.168 613.786 582.977 618.907 578.34 624.054C576.768 638.449 573.188 651.034 566.381 663.815C559.605 674.808 549.385 683.253 537.311 687.836C522.358 693.485 505.713 692.12 491.346 685.421C473.023 676.877 459.089 659.628 452.274 640.823C441.39 610.789 452.261 583.645 465.073 556.339C458.86 555.55 452.578 555.25 446.33 554.852C446.089 550.808 444.965 544.247 447.052 540.678C448.389 538.391 449.952 537.758 452.353 537.108Z"/>
	<path fill="#2EB6B2" d="M488.204 565.496C497.551 566.39 506.984 570.336 515.686 573.716C510.359 580.472 504.805 587.301 501.343 595.245C496.393 606.603 495.927 620.562 500.5 632.106C504.373 641.881 511.805 650.162 521.62 654.19C534.129 659.325 545.249 656.078 557.123 651.304C553.762 655.413 550.071 659.309 546.539 663.274C539.091 669.957 530.694 674.55 520.553 675.275C508.188 676.159 496.55 670.988 487.34 663.005C474.573 651.94 468.1 636.272 467.064 619.602C465.714 597.895 474.119 581.401 488.204 565.496Z"/>
	<path fill="#E5E5E4" d="M539.807 601.074C542.16 601.202 544.795 601.491 546.661 603.102C547.937 604.203 548.462 605.679 548.584 607.315C548.932 611.976 545.102 616.384 542.228 619.624C539.578 619.017 536.5 617.848 534.742 615.667C533.48 614.1 533.025 612.11 533.296 610.134C533.869 605.961 536.684 603.558 539.807 601.074Z"/>
	<path fill="#1B191A" d="M638.482 707.149C650.287 706.935 662.357 707.417 673.696 711.009C683.247 714.034 693.745 719.999 698.349 729.323C699.445 731.543 699.843 733.36 698.992 735.737C691.384 742.343 665.763 725.232 656.842 722.419C651.711 720.801 645.891 720.647 640.556 720.492C634.593 720.455 629.427 720.94 623.763 722.893C615.988 725.573 591.046 740.921 584.732 737.899C582.269 736.72 581.014 732.713 580.01 730.35C581.479 727.783 583.086 725.341 585.077 723.14C597.989 708.865 620.653 708.033 638.482 707.149Z"/>
	<path fill="#AC161E" d="M687.864 438.688C688.684 438.817 689.571 438.923 690.374 439.154C692.522 439.771 693.729 441.044 694.804 442.939C696.623 446.144 697.366 449.835 696.17 453.403C695.335 455.895 694.019 456.929 691.706 457.998C689.367 457.596 687.025 457.129 685.161 455.548C683.573 454.2 682.633 452.339 682.513 450.257C682.254 445.754 685.148 441.951 687.864 438.688Z"/>
	<path fill="#AC161E" d="M593.729 438.126C594.489 438.352 594.978 438.475 595.68 438.749C600.216 440.522 602.074 445.797 603.971 449.865C602.136 452.043 600.083 454.012 598.069 456.022C597.727 456.068 597.387 456.13 597.043 456.16C594.963 456.342 592.444 455.761 590.947 454.225C589.719 452.965 589.185 451.128 589.108 449.411C588.897 444.696 590.696 441.535 593.729 438.126Z"/>
	<path fill="#AC161E" d="M873.178 654.873C874.485 654.998 876.253 655.334 877.395 656.051C878.686 656.863 879.647 657.908 879.813 659.497C880.263 663.826 876.551 667.661 873.8 670.499C871.767 669.814 869.167 669.123 867.764 667.365C866.667 665.99 866.224 664.68 866.548 662.915C867.214 659.291 870.441 656.947 873.178 654.873Z"/>
	<path fill="#AC161E" d="M599.921 499.152C600.097 499.148 600.273 499.132 600.449 499.14C602.821 499.24 605.189 500.281 606.823 502.018C608.245 503.529 608.892 505.597 608.695 507.654C608.431 510.408 606.815 511.671 604.784 513.246C602.168 513.228 599.337 512.113 597.516 510.21C596.123 508.753 595.461 506.908 595.679 504.89C595.989 502.03 597.801 500.765 599.921 499.152Z"/>
	<path fill="#AC161E" d="M682.08 498.641C682.798 498.667 683.512 498.696 684.227 498.768C686.169 498.963 687.814 499.462 689.011 501.127C689.786 502.205 690.04 503.334 689.803 504.668C689.21 508 686.88 509.856 684.341 511.816C684.123 511.884 683.907 511.962 683.686 512.019C681.625 512.552 680.345 512.489 678.483 511.458C677.376 510.069 676.895 508.995 677.077 507.207C677.471 503.333 679.141 501.027 682.08 498.641Z"/>
	<path fill="#AC161E" d="M790.07 722.329C791.595 722.662 792.65 723.474 793.953 724.299C794.646 725.657 794.943 726.04 794.447 727.606C793.338 731.111 788.922 733.473 785.915 735.064C785.562 735.167 785.22 735.325 784.855 735.372C783.905 735.495 782.329 734.922 781.714 734.287C781.342 732.866 781.161 731.731 781.581 730.282C782.781 726.138 786.644 724.283 790.07 722.329Z"/>
	<path fill="#DE2625" d="M191.53 360.575C198.55 338.318 211.699 317.308 226.103 299.063C266.183 248.292 316.584 213.534 381.901 205.911L354.251 231.1C333.661 253.31 298.476 299.445 299.363 330.368C299.443 333.157 299.84 335.869 300.622 338.549C304.864 345.28 306.183 350.433 304.39 358.439C301.976 369.212 296.723 379.16 293.961 389.871C305.885 423.202 314.534 458.304 298.653 492.017C289.272 511.934 271.557 530.448 250.488 537.809C235.95 542.889 218.709 542.962 204.737 536.068C203.274 535.346 201.956 534.564 200.634 533.614C192.626 528.656 187.052 521.258 183.165 512.784C168.839 481.555 169.735 435.433 177.665 402.147C181.055 387.918 186.407 374.245 191.53 360.575Z"/>
	<path fill="#AC161E" d="M300.622 338.549C304.864 345.28 306.183 350.433 304.39 358.439C301.976 369.212 296.723 379.16 293.961 389.871C305.885 423.202 314.534 458.304 298.653 492.017C289.272 511.934 271.557 530.448 250.488 537.809C235.95 542.889 218.709 542.962 204.737 536.068C203.274 535.346 201.956 534.564 200.634 533.614C201.808 530.716 201.905 528.518 201.505 525.415C200.669 518.915 198.252 512.446 196.524 506.118C193.583 495.344 191.121 484.435 189.83 473.331C187.407 452.487 188.761 405.898 202.604 388.379C201.785 395.695 199.439 402.6 197.754 409.735C195.297 420.134 195.875 431.779 197.646 442.237C200.435 458.708 207.933 473.819 221.869 483.576C236.899 494.098 253.272 494.018 270.677 490.905C299.779 459.464 268.005 429.698 273.811 395.202C276.33 380.234 285.151 367.272 292.783 354.483C295.694 349.604 298.818 344.688 300.439 339.2C300.503 338.984 300.561 338.766 300.622 338.549Z"/>
	<path fill="#E05C5A" d="M191.53 360.575C198.55 338.318 211.699 317.308 226.103 299.063C266.183 248.292 316.584 213.534 381.901 205.911L354.251 231.1C346.083 227.391 337.252 230.034 329.284 233.042C300.135 244.046 276.295 266.451 253.634 287.087C244.326 295.563 234.295 304.132 226.348 313.931C217.065 325.379 210.437 338.692 201.71 350.478C199.704 353.187 194.873 360.937 191.53 360.575Z"/>
	<path fill="#AC161E" d="M232.988 429.908C233.68 429.951 234.351 430.024 235.036 430.133C238.871 430.743 242.765 432.561 244.982 435.869C246.704 438.441 247.219 441.49 246.525 444.495C245.493 448.966 242.487 451.38 238.758 453.71C237.684 453.77 236.608 453.806 235.532 453.818C232.511 453.83 229.523 453.04 227.376 450.781C225.658 448.973 224.983 446.57 225.032 444.115C225.153 438.03 228.818 433.82 232.988 429.908Z"/>
	<path fill="#AC161E" d="M220.729 366.499C223.393 367.645 226.29 368.974 228.564 370.787C230.076 371.993 231.429 373.701 231.459 375.729C231.496 378.256 229.641 379.983 228.043 381.675C225.904 382.299 223.064 383.065 220.875 382.237C219.394 381.677 218.372 380.883 217.826 379.347C216.266 374.964 218.817 370.308 220.729 366.499Z"/>
	<path fill="#AC161E" d="M255.232 318.977C255.559 319.162 255.89 319.341 256.215 319.532C258.318 320.768 260.022 322.578 260.573 325.009C261.379 328.562 259.515 331.617 257.729 334.52C257.263 334.332 256.8 334.136 256.34 333.933C254.164 332.966 252.058 331.807 251.405 329.31C250.502 325.855 253.547 321.807 255.232 318.977Z"/>
	<path fill="#DE2625" d="M899.166 205.812C913.158 208.086 926.962 210.411 940.465 214.848C990.773 231.38 1032.75 269.381 1063.22 311.756C1071.59 323.392 1080.58 336.721 1084.54 350.57C1090.96 365.973 1097.23 381.591 1101.27 397.814C1109.91 432.447 1110.56 476.616 1096.78 509.814C1093.5 517.719 1089.07 524.246 1082.73 530.017C1079.66 532.547 1075.94 534.577 1072.3 536.171C1057.74 542.552 1042.5 542.933 1027.73 537.04C1006.18 528.447 988.251 509.464 979.374 488.213C970.369 466.653 969.901 440.481 976.051 418.104C978.505 409.177 982.113 400.652 985.619 392.103C982.087 376.873 976.644 362.468 971.017 347.912C975.237 344.727 978.492 341.523 981.452 337.124C981.603 336.3 981.736 335.533 981.747 334.692C981.876 324.649 978.321 314.169 974.642 304.971C962.652 274.991 944.077 248.728 921.422 225.871C913.767 219.444 906.065 213.066 899.166 205.812Z"/>
	<path fill="#AC161E" d="M981.452 337.124C983.216 343.388 986.636 348.856 989.816 354.48C996.644 366.557 1003.85 378.94 1006.27 392.8C1010.53 417.196 981.449 475.213 1008.35 490.016C1016.88 494.708 1029.57 493.762 1038.6 490.924C1053.25 486.321 1066.04 474.94 1073.03 461.344C1082.36 443.205 1078.54 424.126 1080.98 404.774C1085.92 423.364 1088.99 441.403 1088.79 460.738C1088.6 473.661 1087.23 486.539 1084.68 499.21C1083.32 505.839 1080.79 512.632 1080.43 519.389C1080.21 523.416 1080.7 526.528 1082.73 530.017C1079.66 532.547 1075.94 534.577 1072.3 536.171C1057.74 542.552 1042.5 542.933 1027.73 537.04C1006.18 528.447 988.251 509.464 979.374 488.213C970.369 466.653 969.901 440.481 976.051 418.104C978.505 409.177 982.113 400.652 985.619 392.103C982.087 376.873 976.644 362.468 971.017 347.912C975.237 344.727 978.492 341.523 981.452 337.124Z"/>
	<path fill="#E05C5A" d="M899.166 205.812C913.158 208.086 926.962 210.411 940.465 214.848C990.773 231.38 1032.75 269.381 1063.22 311.756C1071.59 323.392 1080.58 336.721 1084.54 350.57C1083.37 350.326 1083.74 350.513 1082.65 349.771C1073.22 343.361 1049.25 304.842 1039.04 292.905C1021.62 272.539 998.096 259.033 975.084 245.992C961.944 238.545 936.763 221.63 921.422 225.871C913.767 219.444 906.065 213.066 899.166 205.812Z"/>
	<path fill="#AC161E" d="M1041.98 431.935C1045.39 432.001 1049.17 432.199 1052.18 433.924C1054.36 435.167 1055.92 437.061 1056.47 439.534C1057.73 445.239 1054.04 450.303 1051.01 454.732C1049.81 454.979 1048.42 455.046 1047.19 454.975C1044.39 454.813 1041.68 453.064 1039.94 450.937C1037.49 447.952 1036.53 443.816 1037.01 440.026C1037.47 436.444 1039.27 434.166 1041.98 431.935Z"/>
	<path fill="#AC161E" d="M1049.92 367.652C1052.68 368.729 1055.52 369.761 1058.19 371.049C1060.69 372.252 1063.82 374.291 1064.46 377.2C1064.85 379.003 1064.05 380.231 1063.21 381.715C1061.22 382.404 1058.76 383.139 1056.64 383.067C1054.48 382.995 1052.73 382.173 1051.32 380.539C1048.49 377.241 1049.46 371.585 1049.92 367.652Z"/>
	<path fill="#AC161E" d="M821.803 791.986C835.691 783.526 849.618 776.473 864.577 770.111C850.106 815.224 821.396 853.164 778.843 875.179C760.574 884.63 741.264 891.115 721.223 895.573C731.905 860.165 750.455 825.42 784.359 807.389C790.74 803.995 797.355 801.655 804.223 799.454L821.803 791.986Z"/>
	<path fill="#DE2625" d="M804.223 799.454L821.803 791.986C822.084 795.815 821.18 798.583 818.678 801.542C816.892 803.653 814.444 805.278 811.628 805.459C809.92 805.584 808.235 805.004 806.966 803.853C805.765 802.763 804.817 800.95 804.223 799.454Z"/>
	<path fill="#AC161E" d="M417.087 773.552C445.299 783.675 474.3 795.917 499.41 812.472C527.995 831.317 551.595 861.381 558.457 895.411C532.442 891.356 507.665 881.533 485.939 866.66C455.388 845.963 424.212 810.461 417.087 773.552Z"/>
	<path fill="#AC161E" d="M275.751 571.389C286.036 568.661 295.818 563.304 305.54 559.059C309.642 573.737 315.266 591.017 307.002 605.357C305.289 608.33 303.043 610.801 300.713 613.286C290.849 625.191 279.434 633.59 263.662 635.036C250.773 636.269 237.826 633.381 226.682 626.789C224.109 625.194 221.566 623.296 219.391 621.181C203.884 606.101 205.525 582.003 205.064 562.075C216.312 566.812 229.052 572.577 241.073 574.706C252.914 575.569 264.321 574.61 275.751 571.389Z"/>
	<path fill="#DE2625" d="M275.751 571.389C278.581 572.472 281.282 575.496 282.53 578.231C284.617 582.803 283.307 588.768 281.468 593.207C278.153 601.206 270.653 609.679 262.531 612.924C260.388 613.78 258.136 614.231 255.875 614.646C249.924 612.95 246.565 610.658 243.389 605.193C239.079 597.778 236.318 584.788 238.789 576.562C239.01 575.828 239.355 575.603 239.872 575.058L241.073 574.706C252.914 575.569 264.321 574.61 275.751 571.389Z"/>
	<path fill="#DE2625" d="M280.563 621.202C284.893 618.167 289.457 613.588 294.721 612.334C297.164 611.752 298.566 612.066 300.713 613.286C290.849 625.191 279.434 633.59 263.662 635.036C250.773 636.269 237.826 633.381 226.682 626.789C240.801 616.037 263.911 619.684 280.563 621.202Z"/>
	<path fill="#AC161E" d="M254.415 794.381C256.444 792.694 258.519 791.023 260.666 789.489C281.07 774.915 310.857 775.647 334.41 779.533C352.682 783.402 401.966 794.751 411.894 809.942C412.937 811.538 413.082 812.409 412.917 814.273C410.976 817.361 407.486 818.474 404.063 819.199C398.346 820.409 392.135 820.337 386.302 820.626C377.003 821.086 367.67 821.521 358.436 822.774C335.509 825.884 315.579 833.789 291.591 833.925C286.543 827.783 281.688 821.485 277.034 815.039C269.327 808.338 261.785 801.451 254.415 794.381Z"/>
	<path fill="#DE2625" d="M254.415 794.381C256.444 792.694 258.519 791.023 260.666 789.489C281.07 774.915 310.857 775.647 334.41 779.533C327.267 793.775 319.429 806.777 303.457 812.045C294.902 814.866 285.956 815.078 277.034 815.039C269.327 808.338 261.785 801.451 254.415 794.381Z"/>
	<path fill="#AC161E" d="M974.133 559.222C983.757 563.546 993.009 569.263 1002.99 572.711C1015.86 574.996 1028.39 575.453 1041.38 574.054C1052.39 570.503 1062.93 566.16 1073.08 560.581C1074.02 579.739 1075.97 602.852 1061.98 618.196C1060.56 619.753 1059.01 621.291 1057.4 622.648C1043.53 633.032 1028.85 636.871 1011.59 634.468C1003.13 633.29 995.615 630.334 988.741 625.264C983.67 621.29 978.964 616.755 975.587 611.229C966.067 595.652 970.188 575.856 974.133 559.222Z"/>
	<path fill="#DE2625" d="M1002.99 572.711C1015.86 574.996 1028.39 575.453 1041.38 574.054C1043.01 575.533 1043.54 576.746 1043.74 578.955C1044.55 587.582 1039.64 601.05 1033.99 607.531C1031.48 610.419 1028.28 612.538 1024.36 612.687C1018.95 612.892 1013.94 609.176 1010.29 605.543C1004.6 599.872 997.979 591.197 998.234 582.828C998.349 579.017 1000.17 575.255 1002.99 572.711Z"/>
	<path fill="#DE2625" d="M988.741 625.264C989.635 624.558 990.507 624.058 991.579 623.685C1000.37 620.621 1049.42 618.624 1057.4 622.648C1043.53 633.032 1028.85 636.871 1011.59 634.468C1003.13 633.29 995.615 630.334 988.741 625.264Z"/>
	<path fill="#AC161E" d="M950.514 779.622C978.686 775.633 1000.52 776.2 1024.9 792.229C1017.63 800.565 1010.33 808.745 1002.56 816.621C998.543 822.417 994.451 828.162 990.288 833.856C983.136 834.422 975.676 834.009 968.579 833.043C950.902 830.637 933.721 825.128 916.191 821.84C900.438 818.886 882.894 820.601 868.153 813.672C883.637 793.367 925.938 783.835 950.514 779.622Z"/>
	<path fill="#DE2625" d="M950.514 779.622C978.686 775.633 1000.52 776.2 1024.9 792.229C1017.63 800.565 1010.33 808.745 1002.56 816.621C981.526 813.352 967.137 804.767 954.35 787.726C952.715 785.547 950.105 782.48 950.514 779.622Z"/>
	<path fill="#AC161E" d="M883 427.883C895.269 429.901 944.533 435.83 953.153 429.083C953.767 428.602 953.971 428.367 954.482 427.847C955.646 450.663 954.059 473.291 961.86 495.299C964.366 502.357 967.808 509.047 972.093 515.19C976.285 521.302 991.826 536.416 992.387 542.25C991.868 542.897 991.752 543.38 990.823 543.463C981.516 544.286 954.057 529.076 945.302 523.255C909.744 499.614 891.437 469.213 883 427.883Z"/>
	<path fill="#AC161E" d="M325.046 426.127C326.369 429.501 328.319 431.912 331.696 433.419C343.416 438.646 374.217 418.435 377.427 425.136C379.541 429.55 377.338 433.604 383.27 436.078C386.487 437.419 391.559 437.593 395.024 437.592C392.615 445.987 390.03 454.475 386.671 462.545C367.322 509.036 322.351 531.644 278.433 549.82C285.198 540.389 294.429 533.065 301.699 524.056C325.753 494.248 325.052 462.249 325.046 426.127Z"/>
	<path fill="#AC161E" d="M878.977 844.346C896.103 841.534 918.707 835.883 934.076 846.994C941.223 852.161 945.709 859.992 949.658 867.684C939.836 872.543 930.119 877.611 920.514 882.885C912.192 889.834 905.125 895.367 893.742 895.987C868.595 897.358 844.158 880.82 826.345 864.825C827.564 863.35 828.802 861.891 830.059 860.448C842.88 845.803 860.928 845.614 878.977 844.346Z"/>
	<path fill="#DE2625" d="M878.977 844.346C896.103 841.534 918.707 835.883 934.076 846.994C941.223 852.161 945.709 859.992 949.658 867.684C939.836 872.543 930.119 877.611 920.514 882.885C909.98 880.92 895.955 878.577 887.77 871.261C879.656 864.009 879.401 854.358 878.977 844.346Z"/>
	<path fill="#DE2625" d="M323.899 423.982C326.493 410.113 357.85 393.024 366.852 377.544C377.309 359.561 380.077 338.1 383.507 317.908C388.942 327.242 393.56 336.877 398.019 346.706C406.194 370.149 404.039 393.697 399.506 417.613C398.252 424.23 397.079 431.174 395.024 437.592C391.559 437.593 386.487 437.419 383.27 436.078C377.338 433.604 379.541 429.55 377.427 425.136C374.217 418.435 343.416 438.646 331.696 433.419C328.319 431.912 326.369 429.501 325.046 426.127L323.899 423.982Z"/>
	<path fill="#E05C5A" d="M323.899 423.982C326.493 410.113 357.85 393.024 366.852 377.544C377.309 359.561 380.077 338.1 383.507 317.908C388.942 327.242 393.56 336.877 398.019 346.706C380.19 353.967 379.059 368.705 369.355 383.03C358.122 399.612 341.768 414.812 323.899 423.982Z"/>
	<path fill="#AC161E" d="M348.121 844.742C366.257 842.057 383.26 843.592 401.303 845.858C423.143 846.77 432.955 843.251 449.445 861.173C450.854 862.703 452.242 864.253 453.608 865.821C430.137 883.802 408.951 893.493 379.466 897.036C372.194 891.586 365.319 885.569 358.03 880.181C349.039 876.706 340.648 872.107 332.198 867.512C336.629 859.163 341.75 851.728 348.121 844.742Z"/>
	<path fill="#DE2625" d="M348.121 844.742C366.257 842.057 383.26 843.592 401.303 845.858C400.857 855.353 399.26 863.651 391.8 870.335C382.588 878.589 369.863 879.957 358.03 880.181C349.039 876.706 340.648 872.107 332.198 867.512C336.629 859.163 341.75 851.728 348.121 844.742Z"/>
	<path fill="#AC161E" d="M969.148 632.632C973.69 636.585 977.982 640.812 982.315 644.989C999.627 651.55 1015.34 652.738 1033.65 652.503C1021.46 671.582 1008.18 687.891 989.364 700.76C980.233 706.812 971.422 712.824 959.869 711.798C954.134 707.998 948.182 704.07 943.515 698.955C937.775 692.664 936.115 686.237 936.523 677.93C942.221 659.742 956.513 646.261 969.148 632.632Z"/>
	<path fill="#DE2625" d="M969.148 632.632C973.69 636.585 977.982 640.812 982.315 644.989C982.718 654.564 983.19 664.138 983.129 673.724C975.37 680.496 967.011 685.601 956.227 684.954C949.177 684.531 942.39 681.764 936.523 677.93C942.221 659.742 956.513 646.261 969.148 632.632Z"/>
	<path fill="#DE2625" d="M959.869 711.798C960.313 711.072 960.33 711.011 960.94 710.225C965.41 704.479 973.264 699.189 980.623 698.579C983.884 698.309 986.786 698.666 989.364 700.76C980.233 706.812 971.422 712.824 959.869 711.798Z"/>
	<path fill="#DE2625" d="M895.892 317.705C897.787 325.764 898.661 334.002 900.454 342.075C905.095 362.983 915.085 382.04 930.26 397.22C937.104 404.067 945.241 409.485 951.815 416.615C953.52 418.245 954.603 419.549 954.704 422.004C954.783 423.936 954.614 425.919 954.482 427.847C953.971 428.367 953.767 428.602 953.153 429.083C944.533 435.83 895.269 429.901 883 427.883C875.647 402.263 872.193 372.707 882.108 347.336C886.219 337.241 890.819 327.352 895.892 317.705Z"/>
	<path fill="#E05C5A" d="M895.892 317.705C897.787 325.764 898.661 334.002 900.454 342.075C905.095 362.983 915.085 382.04 930.26 397.22C937.104 404.067 945.241 409.485 951.815 416.615C951.119 416.709 951.123 416.733 950.295 416.697C931.123 415.844 912.437 386.531 904.917 371.635C900.765 363.41 897.751 352.781 891.436 346.013C888.319 346.346 885.21 346.88 882.108 347.336C886.219 337.241 890.819 327.352 895.892 317.705Z"/>
	<path fill="#AC161E" d="M296.977 644.656L308.501 633.025C321.431 645.958 335.683 658.783 341.764 676.527C342.322 681.117 343.172 685.628 344.046 690.167C335.306 699.679 328.169 707.697 315.15 711.115C304.622 709.567 296.04 703.227 287.684 697.078C269.552 685.069 257.856 669.639 245.071 652.483C263.339 652.767 279.906 651.924 296.977 644.656Z"/>
	<path fill="#DE2625" d="M296.977 644.656L308.501 633.025C321.431 645.958 335.683 658.783 341.764 676.527C341.239 677.153 340.698 677.766 340.142 678.364C335.947 682.849 330.517 685.16 324.371 685.179C312.629 685.215 304.021 678.252 296.289 670.33C296.118 661.741 296.455 653.226 296.977 644.656Z"/>
	<path fill="#DE2625" d="M287.684 697.078C292.951 694.858 300.664 696.529 305.851 698.68C309.009 699.99 313.542 702.618 314.926 705.975C315.545 707.476 315.25 709.526 315.15 711.115C304.622 709.567 296.04 703.227 287.684 697.078Z"/>
	<path fill="#DE2625" d="M191.247 880.041C199.956 861.632 209.409 843.713 223.722 828.932C229.417 823.05 236.992 816.269 245.676 816.358C251.225 816.415 255.832 819.535 259.535 823.422C266.822 831.071 268.591 840.148 268.423 850.273C264.538 865.138 256.668 884.861 242.785 893.195C238.077 896.021 233.049 896.937 227.718 895.497C221.85 893.912 216.54 890.653 210.706 888.931C204.017 886.386 197.635 883.245 191.247 880.041Z"/>
	<path fill="#AC161E" d="M210.706 888.931C222.083 878.214 228.529 861.811 242.162 853.651C250.062 848.923 259.583 848.145 268.423 850.273C264.538 865.138 256.668 884.861 242.785 893.195C238.077 896.021 233.049 896.937 227.718 895.497C221.85 893.912 216.54 890.653 210.706 888.931Z"/>
	<path fill="#DE2625" d="M1012.61 838.072C1015.9 830.355 1019.03 821.631 1027.5 818.286C1032.73 816.222 1038.02 817.142 1042.97 819.501C1061.42 828.29 1080.56 856.348 1086.84 875.228C1087.39 876.907 1087.9 878.596 1088.39 880.295C1082.42 884.239 1076.7 886.388 1069.93 888.636C1061.2 892.532 1052.79 895.537 1043.47 897.728C1037.31 893.039 1032.16 886.929 1027.79 880.576C1019.6 868.661 1009.87 853.165 1012.61 838.072Z"/>
	<path fill="#AC161E" d="M1012.61 838.072C1029.44 845.461 1045.52 855.026 1056.65 870.086C1061.1 876.097 1064.89 883.143 1069.93 888.636C1061.2 892.532 1052.79 895.537 1043.47 897.728C1037.31 893.039 1032.16 886.929 1027.79 880.576C1019.6 868.661 1009.87 853.165 1012.61 838.072Z"/>
	<path fill="#DE2625" d="M293.21 960.541C294.529 947.938 298.433 935.994 303.221 924.32C308.194 912.196 314.893 894.022 328.095 888.908C334.59 886.392 339.809 888.197 345.736 890.984C351.289 893.971 357.857 897.13 359.934 903.582C364.543 917.906 356.197 944.633 349.212 957.212C347.2 960.835 344.074 965.267 339.848 966.461C332.59 968.51 323.059 962.361 315.926 960.797C308.384 960.439 300.763 960.584 293.21 960.541Z"/>
	<path fill="#AC161E" d="M345.736 890.984C351.289 893.971 357.857 897.13 359.934 903.582C364.543 917.906 356.197 944.633 349.212 957.212C347.2 960.835 344.074 965.267 339.848 966.461C332.59 968.51 323.059 962.361 315.926 960.797C315.988 960.744 316.049 960.69 316.113 960.638C317.371 959.613 318.402 958.644 319.187 957.199C322.9 950.365 324.965 942.216 327.936 934.99C333.996 920.25 341.026 906.28 345.736 890.984Z"/>
	<path fill="#DE2625" d="M933.338 895.08C939.61 891.679 946.661 886.799 954.105 889.089C961.615 891.4 966.607 900.313 969.867 906.97C978.309 924.058 984.655 942.104 988.767 960.715C983.915 960.528 979.094 960.278 974.257 959.847C962.681 960.79 952.014 964.552 941.237 968.606C936.555 963.137 932.849 957.134 929.733 950.652C924.119 938.973 916.117 919.055 921.093 906.04C923.46 899.849 927.666 897.626 933.338 895.08Z"/>
	<path fill="#AC161E" d="M941.237 968.606C936.555 963.137 932.849 957.134 929.733 950.652C924.119 938.973 916.117 919.055 921.093 906.04C923.46 899.849 927.666 897.626 933.338 895.08C938.27 904.196 944.356 912.934 948.791 922.256C954.344 933.928 957.871 946.799 964.781 957.771C967.93 958.476 971.084 959.27 974.257 959.847C962.681 960.79 952.014 964.552 941.237 968.606Z"/>
	<path fill="#DE2625" d="M825.652 983.577C826.193 977.319 826.707 971.744 831.436 967.053C835.713 962.81 841.787 961.305 847.666 961.486C855.375 961.724 861.351 964.443 866.525 970.1C867.134 977.539 866.82 984.467 865.886 991.866C860.956 1014.23 850.71 1036.18 830.826 1048.96C829.264 1049.96 827.692 1051.02 826.003 1051.8C819.666 1056.25 814.017 1059.44 806.438 1061.31C808.032 1047.15 812.947 1034.21 816.911 1020.63C820.387 1008.42 823.304 996.055 825.652 983.577Z"/>
	<path fill="#AC161E" d="M826.003 1051.8C824.155 1045.74 823.861 1040.3 825.796 1034.22C831.591 1016.01 849.482 1000.42 865.886 991.866C860.956 1014.23 850.71 1036.18 830.826 1048.96C829.264 1049.96 827.692 1051.02 826.003 1051.8Z"/>
	<path fill="#AC161E" d="M825.652 983.577C826.193 977.319 826.707 971.744 831.436 967.053C835.713 962.81 841.787 961.305 847.666 961.486C855.375 961.724 861.351 964.443 866.525 970.1C852.794 974.096 838.927 978.226 825.652 983.577Z"/>
	<path fill="#AC161E" d="M808.375 880.581C821.328 887.894 833.871 895.765 846.365 903.827C853.55 908.149 857.665 913.537 859.66 921.78C861.595 929.776 861.367 938.117 861.29 946.285C849.156 946.314 835.898 947.19 824.102 943.827C823.264 943.546 822.452 943.258 821.632 942.928C799.871 934.167 789.662 913.986 781.08 893.484C789.966 888.764 799.214 884.734 808.375 880.581Z"/>
	<path fill="#DE2625" d="M846.365 903.827C853.55 908.149 857.665 913.537 859.66 921.78C861.595 929.776 861.367 938.117 861.29 946.285C849.156 946.314 835.898 947.19 824.102 943.827C822.222 934.951 818.576 922.22 823.92 914.028C828.596 906.86 838.627 905.495 846.365 903.827Z"/>
	<path fill="#DE2625" d="M413.672 980.778C413.115 978.377 412.93 975.905 413.123 973.448C413.31 970.284 414.881 967.363 417.417 965.461C425.856 959.092 442.125 962.708 451.686 963.966C452.775 969.173 453.317 974.56 454.05 979.83C459.482 1008.53 467.111 1036.78 476.87 1064.31C470.651 1060.93 464.534 1057.36 458.528 1053.62C456.794 1052.52 455.127 1051.33 453.462 1050.14C432.936 1035.37 420.549 1017.13 416.501 992.076C415.395 988.259 414.167 984.755 413.672 980.778Z"/>
	<path fill="#AC161E" d="M416.501 992.076C433.076 1006.08 449.92 1020.15 460.062 1039.77C459.766 1044.45 459.453 1049.01 458.528 1053.62C456.794 1052.52 455.127 1051.33 453.462 1050.14C432.936 1035.37 420.549 1017.13 416.501 992.076Z"/>
	<path fill="#AC161E" d="M413.672 980.778C413.115 978.377 412.93 975.905 413.123 973.448C413.31 970.284 414.881 967.363 417.417 965.461C425.856 959.092 442.125 962.708 451.686 963.966C452.775 969.173 453.317 974.56 454.05 979.83C444.746 977.593 423.649 971.073 414.866 973.867C413.303 975.69 413.689 978.433 413.672 980.778Z"/>
	<path fill="#AC161E" d="M472.174 881.155C481.65 885.386 490.776 889.639 499.415 895.472C491.251 913.18 481.662 934.338 461.933 941.56C459.347 942.506 456.744 943.068 454.042 943.553C446.199 945.303 436.274 947.445 428.22 945.98C425.249 945.44 422.608 944.168 420.988 941.516C418.247 937.029 419.693 930.845 420.876 926.052C423.402 915.813 427.449 908.722 436.751 903.15C448.16 895.114 459.517 887.147 472.174 881.155Z"/>
	<path fill="#DE2625" d="M436.751 903.15C443.169 904.183 450.249 905.047 454.512 910.598C458.572 915.883 457.862 923.172 456.865 929.352C456.097 934.11 455.04 938.838 454.042 943.553C446.199 945.303 436.274 947.445 428.22 945.98C425.249 945.44 422.608 944.168 420.988 941.516C418.247 937.029 419.693 930.845 420.876 926.052C423.402 915.813 427.449 908.722 436.751 903.15Z"/>
	<path fill="#DE2625" d="M301.391 1011.77C298.498 1003.26 296.319 993.295 300.372 984.753C302.063 981.189 304.911 978.319 308.685 977.025C312.822 975.606 317.299 976.224 321.162 978.156C328.6 981.875 333.424 989.366 335.809 997.129C338.109 1004.61 338.554 1012.71 338.535 1020.5C342.923 1038.66 346.667 1056.62 349.426 1075.11C324.81 1059.13 312.286 1038.36 301.391 1011.77Z"/>
	<path fill="#AC161E" d="M301.391 1011.77C298.498 1003.26 296.319 993.295 300.372 984.753C302.063 981.189 304.911 978.319 308.685 977.025C312.822 975.606 317.299 976.224 321.162 978.156C328.6 981.875 333.424 989.366 335.809 997.129C338.109 1004.61 338.554 1012.71 338.535 1020.5C331.465 1014.25 321.931 1007.66 312.118 1007.49C307.751 1007.41 304.542 1008.84 301.391 1011.77Z"/>
	<path fill="#DE2625" d="M941.849 1021.25C941.851 1016.68 942.024 1012.09 942.709 1007.57C944.271 997.272 948.587 986.695 957.35 980.487C961.332 977.667 966.303 975.722 971.239 976.647C974.541 977.266 977.248 979.231 979.124 981.986C983.947 989.071 983.06 998.743 981.772 1006.78C970.215 1035.14 954.698 1057.85 930.165 1076.66C933.349 1057.96 937.453 1039.68 941.849 1021.25Z"/>
	<path fill="#AC161E" d="M941.849 1021.25C941.851 1016.68 942.024 1012.09 942.709 1007.57C944.271 997.272 948.587 986.695 957.35 980.487C961.332 977.667 966.303 975.722 971.239 976.647C974.541 977.266 977.248 979.231 979.124 981.986C983.947 989.071 983.06 998.743 981.772 1006.78C979.138 1004.94 976.568 1004.9 973.47 1005.44C961.61 1007.5 952.744 1016.98 941.849 1021.25Z"/>
	<path fill="#DE2625" d="M1059.12 961.123C1055.51 947.999 1048.15 927.662 1054.19 914.733C1056.11 910.632 1059.43 907.718 1063.68 906.202C1071.07 903.565 1078.15 905.66 1084.97 908.726C1093.13 933.898 1088.84 965.212 1076.85 988.558C1072.8 996.437 1067.59 1003.54 1062 1010.38C1061.12 994.17 1061.26 977.178 1059.12 961.123Z"/>
	<path fill="#AC161E" d="M1059.12 961.123C1055.51 947.999 1048.15 927.662 1054.19 914.733C1056.11 910.632 1059.43 907.718 1063.68 906.202C1071.07 903.565 1078.15 905.66 1084.97 908.726C1074.89 921.305 1064.38 945.645 1059.12 961.123Z"/>
	<path fill="#DE2625" d="M195.647 905.597C204.412 904.841 213.789 904.083 221.151 909.959C225.193 913.184 227.078 917.791 227.529 922.853C228.522 933.989 224.581 945.687 221.856 956.375C220.56 962.828 220.707 970.189 220.208 976.799C219.446 986.891 218.298 996.965 217.256 1007.03C202.006 990.611 194.389 970.181 191.481 948.169C189.891 936.138 187.729 915.955 195.647 905.597Z"/>
	<path fill="#AC161E" d="M195.647 905.597C204.412 904.841 213.789 904.083 221.151 909.959C225.193 913.184 227.078 917.791 227.529 922.853C228.522 933.989 224.581 945.687 221.856 956.375C219.223 951.792 216.696 947.206 214.617 942.342C209.457 930.27 205.939 914.402 195.647 905.597Z"/>
	<path fill="#AC161E" d="M922.395 701.607C925.475 705.187 928.742 708.6 931.978 712.038C935.853 714.892 943.597 719.337 944.348 724.368C944.514 725.484 944.171 725.866 943.746 726.847C942.953 727.368 942.169 727.927 941.35 728.404C928.654 735.874 916.783 739.499 902.458 742.385C910.298 729.495 915.866 715.191 922.395 701.607Z"/>
	<path fill="#DE2625" d="M931.978 712.038C935.853 714.892 943.597 719.337 944.348 724.368C944.514 725.484 944.171 725.866 943.746 726.847C942.953 727.368 942.169 727.927 941.35 728.404C939.974 727.857 938.594 727.305 937.253 726.677C934.443 725.361 930.791 723.362 929.915 720.111C929.142 717.241 930.579 714.451 931.978 712.038Z"/>
	<path fill="#AC161E" d="M351.25 707.389C358.717 712.939 373.6 735.708 380.007 744.659L364.201 738.74C352.643 734.388 341.306 729.565 329.946 724.729C337.155 719.082 344.257 713.301 351.25 707.389Z"/>
	<path fill="#DE2625" d="M344.948 716.046C346.109 716.281 346.821 716.445 347.819 717.135C348.811 717.821 348.571 717.994 348.742 719.092C347.245 722.065 344.868 723.406 341.864 724.614C340.624 724.229 339.601 724.006 338.588 723.155C337.806 722.497 338.085 722.667 337.973 721.434C339.551 719 342.532 717.574 344.948 716.046Z"/>
</svg>