<svg xmlns="http://www.w3.org/2000/svg" viewBox="127.15 161.22 1024.89 966.54"><path fill="#E5E5E4" d="M378.496 161.516c2.005-.375 4.324-.308 6.37-.268 14.212.273 28.361 4.321 38.345 14.952 6.892 7.34 10.533 16.759 10.143 26.859-.971 25.154-25.154 45.501-42.219 61.187 8.175 6.107 15.601 12.748 22.145 20.605a171.269 171.269 0 0 1 37.837 124.487c31.717-20.709 65.138-37.048 102.172-45.681 27.167-6.332 55.049-8.058 82.872-8.122 75.313-.172 131.178 13.652 195.329 53.478-1.105-19.632-.426-39.507 3.709-58.774 7.33-34.153 23.606-66.223 53.572-85.6-16.306-15.662-37.525-35.05-41.457-58.357-1.503-8.908.43-17.44 5.743-24.762 7.947-10.949 20.182-16.891 33.327-18.975 46.54-7.378 102.543 20.662 139.356 47.353 62.57 45.367 110.77 119.248 122.88 195.974 8.36 52.996 2.52 110.494-29.81 154.82.22 14.849.76 30.08-2.11 44.72-5.19 26.499-24.15 44.188-40.05 64.733-19.9 25.707-35.62 50.16-63.3 68.582 11.59 3.663 24.9 7.175 34.53 14.869 9.66 7.724 14.45 20.154 22.48 29.449 7.19 8.311 15.91 15.38 23.48 23.365 23.81 25.093 34.9 54.59 38.17 88.694 5.12 53.347.64 98.558-34.95 141.636-12.08 14.62-28.03 31.2-48.08 32.96-15.54 1.37-26.45-6.19-37.84-15.6-14.019 22.75-31.395 44.02-53.86 58.86-14.271 9.43-33.254 17.57-50.701 13.9-10.074-2.11-17.367-7.68-22.927-16.12-.387-.66-.768-1.33-1.112-2.02-8.191-16.4-3.286-33.56 2.078-50-28.267 25.18-62.684 55.66-102.47 57.13-10.073.37-20.917-1.87-28.39-9.1-8.875-8.6-9.792-21.75-10.146-33.36 4.423-8.11 9.484-15.82 13.699-24.09 12.756-25 19.811-50.91 25.842-78.219-14.287-9.716-23.46-20.832-32.66-35.243-68.492 29.458-150.763 19.362-220.595.77-7.627 13.534-20.497 24.084-31.916 34.3 1.037 19.365 5.941 40.112 13.935 57.812 7.716 17.08 24.312 34.32 24.339 53.8.012 8.37-3.608 16.9-9.724 22.63-7.537 7.07-18.832 10-28.988 9.71-40.149-1.16-77.485-32.46-103.826-60.48 5.987 15.69 10.752 34.95 5.38 51.5-2.551 7.85-7.535 13.82-15.003 17.42-12.535 6.05-26.415 4.45-39.15 0-34.096-11.94-60.551-39.88-76.056-71.84-5.694 6.82-12.188 12.87-20.572 16.19-9.994 3.95-20.802 2.64-30.433-1.62-30.002-13.25-52.312-51.89-63.718-81.763-3.527-9.237-6.171-18.66-7.492-28.468-4.057-30.135-.299-84.662 12.389-112.601 7.261-15.987 19.211-31.151 31.886-43.201 6.056-5.759 12.729-11.14 18.145-17.514 7.759-9.131 11.901-19.715 21.785-27.156 10.64-8.011 23.741-12.342 36.071-16.989-7.974-4.96-15.478-10.47-22.299-16.94-15.379-14.589-26.02-31.944-38.575-48.776-7.103-9.522-15.815-17.532-23.431-26.596-20.732-24.672-21.791-54.636-22.559-85.356-20.466-26.529-29.224-58.118-32.06-91.083-6.614-76.886 24.919-154.517 73.911-212.692 44.355-52.669 107.429-89.441 176.559-95.379Z"/><path fill="#1B191A" d="M378.104 186.512c8.645-.493 18.736.098 26.273 4.796 2.813 1.753 5.21 4.284 5.77 7.658 2.139 12.895-32.519 46.264-41.368 56.425a255.33 255.33 0 0 0-15.532 20.141c-14.408 20.588-23.235 42.026-18.713 67.502-9.367 17.149-14.109 32.334-14.612 51.901 37.673-25.198 32.096-41.979 41.029-81.321 1.854-8.167 4.694-19.725 12.47-24.273 2.594-1.517 5.396-1.92 8.303-1.154 10.038 2.642 18.482 16.773 23.169 25.206 23.075 41.508 23.59 86.69 10.614 131.428-14.364 49.519-45.667 81.134-89.718 105.413l6.962 46.507c-2.484 5.757-5.48 11.273-8.385 16.825 4.132 8.484 9.548 16.123 15.181 23.65 5.037-9.636 10.066-19.588 16.826-28.148 7.778-9.851 18.242-17.703 23.543-29.37 4.658-10.251 4.507-22.177 6.319-33.118 1.512-9.128 4.351-18.131 7.667-26.75 19.301-50.156 60.765-93.438 109.934-115.1 80.632-35.522 180.298-36.076 262.069-4.128 19.936 7.789 39.845 17.508 56.941 30.499 29.839 22.676 55.308 60.224 66.468 96.038 5.321 17.076 4.855 35.633 11.891 52.177 9.147 21.508 28.424 36.186 38.463 59.061 4.458-7.625 9.492-14.848 14.673-21.993-5.882-21.73-3.816-40.547-.273-62.413-10.832-8.98-22.879-16.384-33.788-25.282-31.29-25.524-51.936-60.489-60.622-99.775-9.216-41.678-3.633-86.593 19.643-122.844 4.26-6.636 11.99-17.468 20.302-18.953 2.552-.456 4.935.155 7.014 1.69 10.877 8.034 11.133 28.966 12.615 41.083 3.515 28.734 19.556 48.519 41.701 65.842-3.417-22.896-7.424-37.312-18.447-57.938 22.84-54.698-70.767-107.364-71.425-137.524-.063-2.901.869-5.295 2.893-7.378 4.931-5.073 13.366-6.025 20.114-6.291 53.283-2.103 103.724 27.359 141.802 62.316 51.99 47.725 89.12 115.996 92.09 187.332 1.75 42.091-5.27 81.891-34.65 113.847 3.84 16.88 4.61 34.238.31 51.117-3.53 13.83-9.7 25.949-20.89 35.051-4.97 4.047-10.15 7.836-14.14 12.924-5.5 7.015-9.15 15.487-13.91 23.024-11.19 17.731-28.51 36.404-46.443 47.562-8.336 5.186-18.082 7.563-26.475 12.699-12.939 7.919-24.237 18.018-38.14 24.471-13.332 6.187-30.34 5.929-42.562 13.736-1.633 1.043-2.704 1.982-3.108 3.894 1.463 1.252 2.725 1.378 4.636 1.207 6.671-.597 13.766-3.696 20.077-5.861 11.002-3.773 21.951-7.777 33.203-10.752 8.834-2.335 17.839-3.937 26.994-4.079 18.446-.286 50.778 6.634 63.218 21.463 5.34 6.365 8.11 14.578 13.6 21.06 6.54 7.715 15.34 13.545 22.56 20.658 14.06 13.863 32.49 38.138 34.45 58.448.75 7.758-.87 15.566-.17 23.351 1.06 11.822 4.14 23.032 4.22 35.041.23 34.296-14.71 70.94-38.84 95.34-6.08 6.14-21.04 18.79-29.97 18.5-2.15-.07-4.04-.83-5.49-2.45-3.56-3.98-3.12-9.25-2.69-14.16 1.28-7.19 3.72-14.28 4.54-21.54 2.97-26.451-.34-74.528-12.46-98.04-4.96-9.633-11.79-18.177-17.69-27.235-6.44-9.89-12.058-20.257-17.689-30.622l-24.876.098c4.475 13.242 11.665 24.697 18.709 36.667 17.146 29.136 26.986 57.797 22.856 92.008-4.96 41.074-23.066 77.734-56.094 103.294-10.185 7.88-27.392 20.33-40.951 18.17-2.457-.39-4.727-1.5-6.179-3.57-2.397-3.43-1.107-10.68-.5-14.71 2.397-15.91 7.68-31.27 11.473-46.87 4.501-18.53 7.661-37.23 10.927-55.995-5.204-8.361-10.473-16.727-14.485-25.745-6.092-13.694-9.63-28.695-13.687-43.098l-19.445-1.541c5.574 24.023 11.933 49.946 10.313 74.807-1.78 27.332-17.032 51.802-37.303 69.512-17.516 15.29-49.616 36.47-73.949 34.14-2.508-.24-5.368-1.03-6.798-3.31-1.415-2.25-1.307-5.79-.952-8.31 2-14.21 14.578-25.86 19.831-39.04 10.123-25.41 14.21-53.301 17.915-80.225-20.159-18.395-31.518-31.615-44.345-56.094a294.156 294.156 0 0 1-198.418 16.342c-15.351-4.037-30.204-9.736-45.054-15.287-4.969 8.185-9.598 16.692-15.362 24.354-8.719 11.592-20.052 20.777-31.019 30.129 1.421 24.481 5.955 49.821 14.773 72.781 5.237 13.64 24.763 38.5 23.266 52.07-.226 2.05-1.06 3.97-2.742 5.25-3.815 2.89-9.5 2.24-13.902 1.4-33.929-6.46-68.424-32.31-87.475-60.54-17.777-26.34-15.674-48.811-10.891-78.782a1076.45 1076.45 0 0 1 6.816-39.24c-6.637.272-13.301.999-19.925 1.535-2.387 12.808-5.319 26.12-10.062 38.264-5.005 12.818-16.186 23.451-16.553 37.892-.645 25.391 26.845 90.311 19.904 107.761-.886 2.23-2.613 3.89-4.851 4.76-5.962 2.3-14.278-1.44-19.757-3.9a130.043 130.043 0 0 1-68.398-72.06c-5.113-13.48-6.356-27.12-8.293-41.25-1.16-8.458-3.567-17.077-3.386-25.646.175-8.24 2.524-16.568 5.043-24.353 4.251-13.142 9.716-26.267 16.302-38.412 7.835-14.448 16.815-28.09 23.522-43.153l-25.01-.286c-5.457 10.157-11.095 20.329-17.459 29.951-7.822 11.828-19.274 23.428-23.805 36.954-6.989 20.86-9.315 45.833-9.295 67.765.005 5.77.183 11.68.956 17.41 1.412 10.46 7.103 26.69 2.192 36.9-1.046 2.17-2.617 3.65-4.983 4.29-4.837 1.3-12.871-3.58-16.872-6.11-25.239-15.97-44.36-52.173-50.58-80.74-4.469-20.529-.428-40.126.738-60.679.625-11.006.076-22.479 2.54-33.262a63.25 63.25 0 0 1 8.949-20.576c10.397-15.861 25.362-27.93 38.304-41.578 7.996-8.431 13.218-18.582 20.705-27.282 16.18-18.804 47.834-23.292 71.214-22.384 10.366.402 26.332 8.61 34.901 6.809l.119-.72c-4.544-5.223-11.081-9.213-16.781-13.068-8.163-5.519-16.375-11.192-24.958-16.041-15.028-8.489-30.133-15.312-43.335-26.714a135.472 135.472 0 0 1-26.883-31.434c-4.735-7.747-8.883-16.059-14.627-23.129-4.155-5.114-9.134-9.2-14.112-13.474-4.643-3.986-9.121-7.948-12.754-12.909-10.762-14.696-13.421-36.045-11.202-53.701.795-6.329 2.991-14.634.887-20.825-2.652-7.803-10.964-12.691-15.948-18.943-11.579-14.524-15.777-44.823-17.134-63.132-5.245-70.804 22.144-142.315 68.14-195.611 40.215-46.6 95.313-81.362 157.748-85.975Z"/><path fill="#DE2625" d="M506.268 428.814c27.506-25.092 116.663-28.276 153.224-26.583a388.551 388.551 0 0 1 38.235 3.748c16.098 2.391 69.076 12.294 78.61 23.462.64.75.957 1.513 1.25 2.439-.136.732-.178 1.617-.555 2.26-13.017 13.02-24.286 32.295-31.807 49.122-7.961 17.811-7.797 30.314-24.155 43.137 37.352-20.558 40.88-73.414 71.913-86.711 3.369 1.597 6.669 3.105 9.702 5.299 31.733 19.428 59.354 58.696 68.249 94.693a98.613 98.613 0 0 1 2.197 11.661c2.429 12.172 4.465 24.298 5.852 36.634l.487.61c16.726 20.646 42.421 39.393 39.62 69.185-2.355 25.056-18.685 46.828-33.251 66.376-12.61 20.247-44.862 44.181-67.805 50.474-20.949 7.795-45.182 14.174-63.076 28.078-29.563 31.698-43.311 61.401-57.28 102.009-38.997 7.962-78.235 5.976-117.116-1.275-16.399-40.684-25.991-72.845-60.919-103.326a438.042 438.042 0 0 0-38.476-17.39c-.183-.039-.368-.072-.55-.117-7.234-1.808-14.652-5.722-21.427-8.85-28.537-13.175-53.867-28.856-70.919-56.124-2.963-3.933-5.937-7.869-8.677-11.963-19.825-29.627-30.112-63.2-2.787-91.845 7.334-7.687 17.174-14.224 22.22-23.786 5.276-9.997 5.386-22.088 7.559-32.996.344-4.266 1.143-8.591 2.119-12.755 9.371-40.024 40.199-81.202 75.1-102.865 3.15-2.695 7.811-4.137 11.612-5.664a164.246 164.246 0 0 1 23.19 29.625c13.091 21.698 19.018 39.057 40.39 55-13.154-16.921-16.58-37.706-27.195-56.034-3.688-6.368-8.006-12.701-12.477-18.536-4.07-5.313-10.474-10.918-13.057-16.992Z"/><path fill="#AC161E" d="m374.986 654.912.443.763c9.037 15.824 10.238 26.3 22.8 41.679 10.5 12.856 23.323 23.691 37.032 32.987 19.851 13.459 41.739 23.54 63.433 33.602 24.907 11.553 49.874 23.055 76.371 30.509a246.131 246.131 0 0 0 155.825-6.723c15.573-6.101 30.135-14.31 45.153-21.605 17.242-8.375 34.901-15.802 51.639-25.193 25.38-14.239 48.48-32.636 62.601-58.608 3.541-6.512 6.266-13.587 9.169-20.403-.957 12.393-2.119 25.722-7.885 36.979-2.863 5.588-6.97 11.056-8.621 17.149-.745 2.749-.976 4.356 1.04 6.573.505.555 1.271 1.072 1.853 1.525-12.61 20.247-44.862 44.181-67.805 50.474-20.949 7.795-45.182 14.174-63.076 28.078-29.563 31.698-43.311 61.401-57.28 102.009-38.997 7.962-78.235 5.976-117.116-1.275-16.399-40.684-25.991-72.845-60.919-103.326a438.042 438.042 0 0 0-38.476-17.39c-.183-.039-.368-.072-.55-.117-7.234-1.808-14.652-5.722-21.427-8.85-28.537-13.175-53.867-28.856-70.919-56.124 2.14-2.86 2.517-3.859 1.977-7.466-1.575-10.516-6.633-20.749-9.959-30.826-2.636-7.987-4.098-16.116-5.303-24.421Z"/><path fill="#DE2625" d="M754.958 802.698c-2.639-.367-6.885-.532-8.623-2.828l.233-1.533c7.299-10.184 40.918-22.326 53.471-24.958 5.841-1.225 12.786-2.201 17.995 1.241-20.949 7.795-45.182 14.174-63.076 28.078ZM486.386 778.05c19.623 2.77 37.636 7.616 52.1 21.961-6.282-.076-12.566-.222-18.843.095a438.042 438.042 0 0 0-38.476-17.39c1.53-1.909 3.265-3.209 5.219-4.666Z"/><path fill="#E05C5A" d="M506.268 428.814c27.506-25.092 116.663-28.276 153.224-26.583a388.551 388.551 0 0 1 38.235 3.748c16.098 2.391 69.076 12.294 78.61 23.462.64.75.957 1.513 1.25 2.439-.136.732-.178 1.617-.555 2.26-12.207-2.343-24.033-8.418-36.212-11.508-48.945-12.416-100.653-19.238-150.934-11.465-15.044 2.325-30.132 5.592-44.887 9.319-12.15 3.069-25.415 8.06-37.99 8.322-.247.006-.494.004-.741.006ZM802.685 444.987c31.733 19.428 59.354 58.696 68.249 94.693a98.613 98.613 0 0 1 2.197 11.661c-.696-.437-.561-.331-1.419-1.025-10.213-8.249-25.479-45.577-33.861-59.025-3.664-5.878-8.834-10.881-13.501-15.965-7.025-7.654-20.551-19.706-21.665-30.339ZM483.805 441.415c-.079 2.043-.472 3.24-1.591 4.967-3.879 5.979-9.476 11.078-14.408 16.199-9.097 9.448-18.475 18.972-26.216 29.585-2.531 3.471-4.93 7.103-6.862 10.947-5.083 10.11-19.313 47.743-25.352 52.516-.934.738-1.676 1.071-2.79 1.406.344-4.266 1.143-8.591 2.119-12.755 9.371-40.024 40.199-81.202 75.1-102.865Z"/><path fill="#1B191A" d="M813.462 535.872c6.908-1.057 13.518.865 20.107 2.71.154 5.469.565 10.94.894 16.401l-19.543.007c9.818 18.06 18.241 36.777 18.143 57.743a83.69 83.69 0 0 1-24.761 59.356c-12.516 12.178-29.183 19.548-46.766 19.255-17.42-.291-31.731-8.524-43.663-20.709-10.657-14.298-12.907-29.771-12.333-47.167-6.188-4.005-11.992-8.309-15.054-15.289-6.198-14.131 1.891-32.422 7.185-45.668a1150.589 1150.589 0 0 0 5.793 32.566c32.98-30.297 63.601-54.327 109.998-59.205Z"/><path fill="#2EB6B2" d="M785.261 563.044c3.259 1.245 6.159 2.674 8.962 4.779 11.139 8.368 16.428 22.224 18.192 35.64 2.392 18.186-.888 37.067-12.298 51.8-7.923 10.231-19.541 18.056-32.57 19.596-11.064 1.309-22.741-1.509-31.521-8.437-5.947-5.228-11.168-11.356-16.282-17.384 6.726 3.61 13.487 6.883 21.206 7.567a37.04 37.04 0 0 0 27.051-8.633 42.756 42.756 0 0 0 14.727-29.197c1.409-17.011-6.259-30.299-16.858-42.886a680.89 680.89 0 0 1 19.391-12.845Z"/><path fill="#E5E5E4" d="M734.201 600.405c2.921.864 6.22 1.586 8.902 3.063 2.216 1.22 3.941 2.767 4.542 5.297.841 3.543-1.982 6.945-3.868 9.629-1.875 1.045-4.591 1.835-6.735 1.187-1.518-.459-2.599-1.786-3.276-3.16-2.575-5.231-1.412-10.843.435-16.016Z"/><path fill="#1B191A" d="M452.353 537.108c8.397-.391 16.892-.877 25.265.088 39.032 4.502 68.393 32.152 96.812 56.65 2.78-9.411 5.456-18.853 8.029-28.323a142.912 142.912 0 0 1 8.271 42.311c-3.562 5.952-7.753 11.073-12.39 16.22-1.572 14.395-5.152 26.98-11.959 39.761a58.56 58.56 0 0 1-29.07 24.021c-14.953 5.649-31.598 4.284-45.965-2.415-18.323-8.544-32.257-25.793-39.072-44.598-10.884-30.034-.013-57.178 12.799-84.484-6.213-.789-12.495-1.089-18.743-1.487-.241-4.044-1.365-10.605.722-14.174 1.337-2.287 2.9-2.92 5.301-3.57Z"/><path fill="#2EB6B2" d="M488.204 565.496c9.347.894 18.78 4.84 27.482 8.22-5.327 6.756-10.881 13.585-14.343 21.529-4.95 11.358-5.416 25.317-.843 36.861 3.873 9.775 11.305 18.056 21.12 22.084 12.509 5.135 23.629 1.888 35.503-2.886-3.361 4.109-7.052 8.005-10.584 11.97-7.448 6.683-15.845 11.276-25.986 12.001-12.365.884-24.003-4.287-33.213-12.27-12.767-11.065-19.24-26.733-20.276-43.403-1.35-21.707 7.055-38.201 21.14-54.106Z"/><path fill="#E5E5E4" d="M539.807 601.074c2.353.128 4.988.417 6.854 2.028 1.276 1.101 1.801 2.577 1.923 4.213.348 4.661-3.482 9.069-6.356 12.309-2.65-.607-5.728-1.776-7.486-3.957-1.262-1.567-1.717-3.557-1.446-5.533.573-4.173 3.388-6.576 6.511-9.06Z"/><path fill="#1B191A" d="M638.482 707.149c11.805-.214 23.875.268 35.214 3.86 9.551 3.025 20.049 8.99 24.653 18.314 1.096 2.22 1.494 4.037.643 6.414-7.608 6.606-33.229-10.505-42.15-13.318-5.131-1.618-10.951-1.772-16.286-1.927-5.963-.037-11.129.448-16.793 2.401-7.775 2.68-32.717 18.028-39.031 15.006-2.463-1.179-3.718-5.186-4.722-7.549 1.469-2.567 3.076-5.009 5.067-7.21 12.912-14.275 35.576-15.107 53.405-15.991Z"/><path fill="#AC161E" d="M687.864 438.688c.82.129 1.707.235 2.51.466 2.148.617 3.355 1.89 4.43 3.785 1.819 3.205 2.562 6.896 1.366 10.464-.835 2.492-2.151 3.526-4.464 4.595-2.339-.402-4.681-.869-6.545-2.45-1.588-1.348-2.528-3.209-2.648-5.291-.259-4.503 2.635-8.306 5.351-11.569ZM593.729 438.126c.76.226 1.249.349 1.951.623 4.536 1.773 6.394 7.048 8.291 11.116-1.835 2.178-3.888 4.147-5.902 6.157-.342.046-.682.108-1.026.138-2.08.182-4.599-.399-6.096-1.935-1.228-1.26-1.762-3.097-1.839-4.814-.211-4.715 1.588-7.876 4.621-11.285ZM873.178 654.873c1.307.125 3.075.461 4.217 1.178 1.291.812 2.252 1.857 2.418 3.446.45 4.329-3.262 8.164-6.013 11.002-2.033-.685-4.633-1.376-6.036-3.134-1.097-1.375-1.54-2.685-1.216-4.45.666-3.624 3.893-5.968 6.63-8.042ZM599.921 499.152c.176-.004.352-.02.528-.012 2.372.1 4.74 1.141 6.374 2.878 1.422 1.511 2.069 3.579 1.872 5.636-.264 2.754-1.88 4.017-3.911 5.592-2.616-.018-5.447-1.133-7.268-3.036-1.393-1.457-2.055-3.302-1.837-5.32.31-2.86 2.122-4.125 4.242-5.738ZM682.08 498.641c.718.026 1.432.055 2.147.127 1.942.195 3.587.694 4.784 2.359.775 1.078 1.029 2.207.792 3.541-.593 3.332-2.923 5.188-5.462 7.148-.218.068-.434.146-.655.203-2.061.533-3.341.47-5.203-.561-1.107-1.389-1.588-2.463-1.406-4.251.394-3.874 2.064-6.18 5.003-8.566ZM790.07 722.329c1.525.333 2.58 1.145 3.883 1.97.693 1.358.99 1.741.494 3.307-1.109 3.505-5.525 5.867-8.532 7.458-.353.103-.695.261-1.06.308-.95.123-2.526-.45-3.141-1.085-.372-1.421-.553-2.556-.133-4.005 1.2-4.144 5.063-5.999 8.489-7.953Z"/><path fill="#DE2625" d="M191.53 360.575c7.02-22.257 20.169-43.267 34.573-61.512 40.08-50.771 90.481-85.529 155.798-93.152l-27.65 25.189c-20.59 22.21-55.775 68.345-54.888 99.268.08 2.789.477 5.501 1.259 8.181 4.242 6.731 5.561 11.884 3.768 19.89-2.414 10.773-7.667 20.721-10.429 31.432 11.924 33.331 20.573 68.433 4.692 102.146-9.381 19.917-27.096 38.431-48.165 45.792-14.538 5.08-31.779 5.153-45.751-1.741a28.474 28.474 0 0 1-4.103-2.454c-8.008-4.958-13.582-12.356-17.469-20.83-14.326-31.229-13.43-77.351-5.5-110.637 3.39-14.229 8.742-27.902 13.865-41.572Z"/><path fill="#AC161E" d="M300.622 338.549c4.242 6.731 5.561 11.884 3.768 19.89-2.414 10.773-7.667 20.721-10.429 31.432 11.924 33.331 20.573 68.433 4.692 102.146-9.381 19.917-27.096 38.431-48.165 45.792-14.538 5.08-31.779 5.153-45.751-1.741a28.474 28.474 0 0 1-4.103-2.454c1.174-2.898 1.271-5.096.871-8.199-.836-6.5-3.253-12.969-4.981-19.297-2.941-10.774-5.403-21.683-6.694-32.787-2.423-20.844-1.069-67.433 12.774-84.952-.819 7.316-3.165 14.221-4.85 21.356-2.457 10.399-1.879 22.044-.108 32.502 2.789 16.471 10.287 31.582 24.223 41.339 15.03 10.522 31.403 10.442 48.808 7.329 29.102-31.441-2.672-61.207 3.134-95.703 2.519-14.968 11.34-27.93 18.972-40.719 2.911-4.879 6.035-9.795 7.656-15.283.064-.216.122-.434.183-.651Z"/><path fill="#E05C5A" d="M191.53 360.575c7.02-22.257 20.169-43.267 34.573-61.512 40.08-50.771 90.481-85.529 155.798-93.152l-27.65 25.189c-8.168-3.709-16.999-1.066-24.967 1.942-29.149 11.004-52.989 33.409-75.65 54.045-9.308 8.476-19.339 17.045-27.286 26.844-9.283 11.448-15.911 24.761-24.638 36.547-2.006 2.709-6.837 10.459-10.18 10.097Z"/><path fill="#AC161E" d="M232.988 429.908c.692.043 1.363.116 2.048.225 3.835.61 7.729 2.428 9.946 5.736 1.722 2.572 2.237 5.621 1.543 8.626-1.032 4.471-4.038 6.885-7.767 9.215-1.074.06-2.15.096-3.226.108-3.021.012-6.009-.778-8.156-3.037-1.718-1.808-2.393-4.211-2.344-6.666.121-6.085 3.786-10.295 7.956-14.207ZM220.729 366.499c2.664 1.146 5.561 2.475 7.835 4.288 1.512 1.206 2.865 2.914 2.895 4.942.037 2.527-1.818 4.254-3.416 5.946-2.139.624-4.979 1.39-7.168.562-1.481-.56-2.503-1.354-3.049-2.89-1.56-4.383.991-9.039 2.903-12.848ZM255.232 318.977c.327.185.658.364.983.555 2.103 1.236 3.807 3.046 4.358 5.477.806 3.553-1.058 6.608-2.844 9.511a46.929 46.929 0 0 1-1.389-.587c-2.176-.967-4.282-2.126-4.935-4.623-.903-3.455 2.142-7.503 3.827-10.333Z"/><path fill="#DE2625" d="M899.166 205.812c13.992 2.274 27.796 4.599 41.299 9.036 50.308 16.532 92.285 54.533 122.755 96.908 8.37 11.636 17.36 24.965 21.32 38.814 6.42 15.403 12.69 31.021 16.73 47.244 8.64 34.633 9.29 78.802-4.49 112-3.28 7.905-7.71 14.432-14.05 20.203-3.07 2.53-6.79 4.56-10.43 6.154-14.56 6.381-29.8 6.762-44.57.869-21.55-8.593-39.479-27.576-48.356-48.827-9.005-21.56-9.473-47.732-3.323-70.109 2.454-8.927 6.062-17.452 9.568-26.001-3.532-15.23-8.975-29.635-14.602-44.191 4.22-3.185 7.475-6.389 10.435-10.788.151-.824.284-1.591.295-2.432.129-10.043-3.426-20.523-7.105-29.721-11.99-29.98-30.565-56.243-53.22-79.1-7.655-6.427-15.357-12.805-22.256-20.059Z"/><path fill="#AC161E" d="M981.452 337.124c1.764 6.264 5.184 11.732 8.364 17.356 6.828 12.077 14.034 24.46 16.454 38.32 4.26 24.396-24.821 82.413 2.08 97.216 8.53 4.692 21.22 3.746 30.25.908 14.65-4.603 27.44-15.984 34.43-29.58 9.33-18.139 5.51-37.218 7.95-56.57 4.94 18.59 8.01 36.629 7.81 55.964a210.689 210.689 0 0 1-4.11 38.472c-1.36 6.629-3.89 13.422-4.25 20.179-.22 4.027.27 7.139 2.3 10.628-3.07 2.53-6.79 4.56-10.43 6.154-14.56 6.381-29.8 6.762-44.57.869-21.55-8.593-39.479-27.576-48.356-48.827-9.005-21.56-9.473-47.732-3.323-70.109 2.454-8.927 6.062-17.452 9.568-26.001-3.532-15.23-8.975-29.635-14.602-44.191 4.22-3.185 7.475-6.389 10.435-10.788Z"/><path fill="#E05C5A" d="M899.166 205.812c13.992 2.274 27.796 4.599 41.299 9.036 50.308 16.532 92.285 54.533 122.755 96.908 8.37 11.636 17.36 24.965 21.32 38.814-1.17-.244-.8-.057-1.89-.799-9.43-6.41-33.4-44.929-43.61-56.866-17.42-20.366-40.944-33.872-63.956-46.913-13.14-7.447-38.321-24.362-53.662-20.121-7.655-6.427-15.357-12.805-22.256-20.059Z"/><path fill="#AC161E" d="M1041.98 431.935c3.41.066 7.19.264 10.2 1.989 2.18 1.243 3.74 3.137 4.29 5.61 1.26 5.705-2.43 10.769-5.46 15.198-1.2.247-2.59.314-3.82.243-2.8-.162-5.51-1.911-7.25-4.038-2.45-2.985-3.41-7.121-2.93-10.911.46-3.582 2.26-5.86 4.97-8.091ZM1049.92 367.652c2.76 1.077 5.6 2.109 8.27 3.397 2.5 1.203 5.63 3.242 6.27 6.151.39 1.803-.41 3.031-1.25 4.515-1.99.689-4.45 1.424-6.57 1.352-2.16-.072-3.91-.894-5.32-2.528-2.83-3.298-1.86-8.954-1.4-12.887ZM821.803 791.986c13.888-8.46 27.815-15.513 42.774-21.875-14.471 45.113-43.181 83.053-85.734 105.068-18.269 9.451-37.579 15.936-57.62 20.394 10.682-35.408 29.232-70.153 63.136-88.184 6.381-3.394 12.996-5.734 19.864-7.935l17.58-7.468Z"/><path fill="#DE2625" d="m804.223 799.454 17.58-7.468c.281 3.829-.623 6.597-3.125 9.556-1.786 2.111-4.234 3.736-7.05 3.917a6.259 6.259 0 0 1-4.662-1.606c-1.201-1.09-2.149-2.903-2.743-4.399Z"/><path fill="#AC161E" d="M417.087 773.552c28.212 10.123 57.213 22.365 82.323 38.92 28.585 18.845 52.185 48.909 59.047 82.939a176.493 176.493 0 0 1-72.518-28.751c-30.551-20.697-61.727-56.199-68.852-93.108ZM275.751 571.389c10.285-2.728 20.067-8.085 29.789-12.33 4.102 14.678 9.726 31.958 1.462 46.298-1.713 2.973-3.959 5.444-6.289 7.929-9.864 11.905-21.279 20.304-37.051 21.75a61.189 61.189 0 0 1-36.98-8.247c-2.573-1.595-5.116-3.493-7.291-5.608-15.507-15.08-13.866-39.178-14.327-59.106 11.248 4.737 23.988 10.502 36.009 12.631 11.841.863 23.248-.096 34.678-3.317Z"/><path fill="#DE2625" d="M275.751 571.389c2.83 1.083 5.531 4.107 6.779 6.842 2.087 4.572.777 10.537-1.062 14.976-3.315 7.999-10.815 16.472-18.937 19.717-2.143.856-4.395 1.307-6.656 1.722-5.951-1.696-9.31-3.988-12.486-9.453-4.31-7.415-7.071-20.405-4.6-28.631.221-.734.566-.959 1.083-1.504l1.201-.352c11.841.863 23.248-.096 34.678-3.317ZM280.563 621.202c4.33-3.035 8.894-7.614 14.158-8.868 2.443-.582 3.845-.268 5.992.952-9.864 11.905-21.279 20.304-37.051 21.75a61.189 61.189 0 0 1-36.98-8.247c14.119-10.752 37.229-7.105 53.881-5.587Z"/><path fill="#AC161E" d="M254.415 794.381c2.029-1.687 4.104-3.358 6.251-4.892 20.404-14.574 50.191-13.842 73.744-9.956 18.272 3.869 67.556 15.218 77.484 30.409 1.043 1.596 1.188 2.467 1.023 4.331-1.941 3.088-5.431 4.201-8.854 4.926-5.717 1.21-11.928 1.138-17.761 1.427-9.299.46-18.632.895-27.866 2.148-22.927 3.11-42.857 11.015-66.845 11.151a380.944 380.944 0 0 1-14.557-18.886 626.013 626.013 0 0 1-22.619-20.658Z"/><path fill="#DE2625" d="M254.415 794.381c2.029-1.687 4.104-3.358 6.251-4.892 20.404-14.574 50.191-13.842 73.744-9.956-7.143 14.242-14.981 27.244-30.953 32.512-8.555 2.821-17.501 3.033-26.423 2.994a626.013 626.013 0 0 1-22.619-20.658Z"/><path fill="#AC161E" d="M974.133 559.222c9.624 4.324 18.876 10.041 28.857 13.489 12.87 2.285 25.4 2.742 38.39 1.343 11.01-3.551 21.55-7.894 31.7-13.473.94 19.158 2.89 42.271-11.1 57.615-1.42 1.557-2.97 3.095-4.58 4.452-13.87 10.384-28.55 14.223-45.81 11.82-8.46-1.178-15.975-4.134-22.849-9.204-5.071-3.974-9.777-8.509-13.154-14.035-9.52-15.577-5.399-35.373-1.454-52.007Z"/><path fill="#DE2625" d="M1002.99 572.711c12.87 2.285 25.4 2.742 38.39 1.343 1.63 1.479 2.16 2.692 2.36 4.901.81 8.627-4.1 22.095-9.75 28.576-2.51 2.888-5.71 5.007-9.63 5.156-5.41.205-10.42-3.511-14.07-7.144-5.69-5.671-12.311-14.346-12.056-22.715.115-3.811 1.936-7.573 4.756-10.117ZM988.741 625.264c.894-.706 1.766-1.206 2.838-1.579 8.791-3.064 57.841-5.061 65.821-1.037-13.87 10.384-28.55 14.223-45.81 11.82-8.46-1.178-15.975-4.134-22.849-9.204Z"/><path fill="#AC161E" d="M950.514 779.622c28.172-3.989 50.006-3.422 74.386 12.607-7.27 8.336-14.57 16.516-22.34 24.392a837.882 837.882 0 0 1-12.272 17.235c-7.152.566-14.612.153-21.709-.813-17.677-2.406-34.858-7.915-52.388-11.203-15.753-2.954-33.297-1.239-48.038-8.168 15.484-20.305 57.785-29.837 82.361-34.05Z"/><path fill="#DE2625" d="M950.514 779.622c28.172-3.989 50.006-3.422 74.386 12.607-7.27 8.336-14.57 16.516-22.34 24.392-21.034-3.269-35.423-11.854-48.21-28.895-1.635-2.179-4.245-5.246-3.836-8.104Z"/><path fill="#AC161E" d="M883 427.883c12.269 2.018 61.533 7.947 70.153 1.2.614-.481.818-.716 1.329-1.236 1.164 22.816-.423 45.444 7.378 67.452a83.748 83.748 0 0 0 10.233 19.891c4.192 6.112 19.733 21.226 20.294 27.06-.519.647-.635 1.13-1.564 1.213-9.307.823-36.766-14.387-45.521-20.208-35.558-23.641-53.865-54.042-62.302-95.372ZM325.046 426.127c1.323 3.374 3.273 5.785 6.65 7.292 11.72 5.227 42.521-14.984 45.731-8.283 2.114 4.414-.089 8.468 5.843 10.942 3.217 1.341 8.289 1.515 11.754 1.514-2.409 8.395-4.994 16.883-8.353 24.953-19.349 46.491-64.32 69.099-108.238 87.275 6.765-9.431 15.996-16.755 23.266-25.764 24.054-29.808 23.353-61.807 23.347-97.929ZM878.977 844.346c17.126-2.812 39.73-8.463 55.099 2.648 7.147 5.167 11.633 12.998 15.582 20.69a769.126 769.126 0 0 0-29.144 15.201c-8.322 6.949-15.389 12.482-26.772 13.102-25.147 1.371-49.584-15.167-67.397-31.162a221.11 221.11 0 0 1 3.714-4.377c12.821-14.645 30.869-14.834 48.918-16.102Z"/><path fill="#DE2625" d="M878.977 844.346c17.126-2.812 39.73-8.463 55.099 2.648 7.147 5.167 11.633 12.998 15.582 20.69a769.126 769.126 0 0 0-29.144 15.201c-10.534-1.965-24.559-4.308-32.744-11.624-8.114-7.252-8.369-16.903-8.793-26.915ZM323.899 423.982c2.594-13.869 33.951-30.958 42.953-46.438 10.457-17.983 13.225-39.444 16.655-59.636 5.435 9.334 10.053 18.969 14.512 28.798 8.175 23.443 6.02 46.991 1.487 70.907-1.254 6.617-2.427 13.561-4.482 19.979-3.465.001-8.537-.173-11.754-1.514-5.932-2.474-3.729-6.528-5.843-10.942-3.21-6.701-34.011 13.51-45.731 8.283-3.377-1.507-5.327-3.918-6.65-7.292l-1.147-2.145Z"/><path fill="#E05C5A" d="M323.899 423.982c2.594-13.869 33.951-30.958 42.953-46.438 10.457-17.983 13.225-39.444 16.655-59.636 5.435 9.334 10.053 18.969 14.512 28.798-17.829 7.261-18.96 21.999-28.664 36.324-11.233 16.582-27.587 31.782-45.456 40.952Z"/><path fill="#AC161E" d="M348.121 844.742c18.136-2.685 35.139-1.15 53.182 1.116 21.84.912 31.652-2.607 48.142 15.315 1.409 1.53 2.797 3.08 4.163 4.648-23.471 17.981-44.657 27.672-74.142 31.215-7.272-5.45-14.147-11.467-21.436-16.855-8.991-3.475-17.382-8.074-25.832-12.669 4.431-8.349 9.552-15.784 15.923-22.77Z"/><path fill="#DE2625" d="M348.121 844.742c18.136-2.685 35.139-1.15 53.182 1.116-.446 9.495-2.043 17.793-9.503 24.477-9.212 8.254-21.937 9.622-33.77 9.846-8.991-3.475-17.382-8.074-25.832-12.669 4.431-8.349 9.552-15.784 15.923-22.77Z"/><path fill="#AC161E" d="M969.148 632.632c4.542 3.953 8.834 8.18 13.167 12.357 17.312 6.561 33.025 7.749 51.335 7.514-12.19 19.079-25.47 35.388-44.286 48.257-9.131 6.052-17.942 12.064-29.495 11.038-5.735-3.8-11.687-7.728-16.354-12.843-5.74-6.291-7.4-12.718-6.992-21.025 5.698-18.188 19.99-31.669 32.625-45.298Z"/><path fill="#DE2625" d="M969.148 632.632c4.542 3.953 8.834 8.18 13.167 12.357.403 9.575.875 19.149.814 28.735-7.759 6.772-16.118 11.877-26.902 11.23-7.05-.423-13.837-3.19-19.704-7.024 5.698-18.188 19.99-31.669 32.625-45.298ZM959.869 711.798c.444-.726.461-.787 1.071-1.573 4.47-5.746 12.324-11.036 19.683-11.646 3.261-.27 6.163.087 8.741 2.181-9.131 6.052-17.942 12.064-29.495 11.038ZM895.892 317.705c1.895 8.059 2.769 16.297 4.562 24.37 4.641 20.908 14.631 39.965 29.806 55.145 6.844 6.847 14.981 12.265 21.555 19.395 1.705 1.63 2.788 2.934 2.889 5.389.079 1.932-.09 3.915-.222 5.843-.511.52-.715.755-1.329 1.236-8.62 6.747-57.884.818-70.153-1.2-7.353-25.62-10.807-55.176-.892-80.547a335.666 335.666 0 0 1 13.784-29.631Z"/><path fill="#E05C5A" d="M895.892 317.705c1.895 8.059 2.769 16.297 4.562 24.37 4.641 20.908 14.631 39.965 29.806 55.145 6.844 6.847 14.981 12.265 21.555 19.395-.696.094-.692.118-1.52.082-19.172-.853-37.858-30.166-45.378-45.062-4.152-8.225-7.166-18.854-13.481-25.622-3.117.333-6.226.867-9.328 1.323a335.666 335.666 0 0 1 13.784-29.631Z"/><path fill="#AC161E" d="m296.977 644.656 11.524-11.631c12.93 12.933 27.182 25.758 33.263 43.502.558 4.59 1.408 9.101 2.282 13.64-8.74 9.512-15.877 17.53-28.896 20.948-10.528-1.548-19.11-7.888-27.466-14.037-18.132-12.009-29.828-27.439-42.613-44.595 18.268.284 34.835-.559 51.906-7.827Z"/><path fill="#DE2625" d="m296.977 644.656 11.524-11.631c12.93 12.933 27.182 25.758 33.263 43.502a47.932 47.932 0 0 1-1.622 1.837c-4.195 4.485-9.625 6.796-15.771 6.815-11.742.036-20.35-6.927-28.082-14.849-.171-8.589.166-17.104.688-25.674ZM287.684 697.078c5.267-2.22 12.98-.549 18.167 1.602 3.158 1.31 7.691 3.938 9.075 7.295.619 1.501.324 3.551.224 5.14-10.528-1.548-19.11-7.888-27.466-14.037ZM191.247 880.041c8.709-18.409 18.162-36.328 32.475-51.109 5.695-5.882 13.27-12.663 21.954-12.574 5.549.057 10.156 3.177 13.859 7.064 7.287 7.649 9.056 16.726 8.888 26.851-3.885 14.865-11.755 34.588-25.638 42.922-4.708 2.826-9.736 3.742-15.067 2.302-5.868-1.585-11.178-4.844-17.012-6.566-6.689-2.545-13.071-5.686-19.459-8.89Z"/><path fill="#AC161E" d="M210.706 888.931c11.377-10.717 17.823-27.12 31.456-35.28 7.9-4.728 17.421-5.506 26.261-3.378-3.885 14.865-11.755 34.588-25.638 42.922-4.708 2.826-9.736 3.742-15.067 2.302-5.868-1.585-11.178-4.844-17.012-6.566Z"/><path fill="#DE2625" d="M1012.61 838.072c3.29-7.717 6.42-16.441 14.89-19.786 5.23-2.064 10.52-1.144 15.47 1.215 18.45 8.789 37.59 36.847 43.87 55.727.55 1.679 1.06 3.368 1.55 5.067-5.97 3.944-11.69 6.093-18.46 8.341-8.73 3.896-17.14 6.901-26.46 9.092-6.16-4.689-11.31-10.799-15.68-17.152-8.19-11.915-17.92-27.411-15.18-42.504Z"/><path fill="#AC161E" d="M1012.61 838.072c16.83 7.389 32.91 16.954 44.04 32.014 4.45 6.011 8.24 13.057 13.28 18.55-8.73 3.896-17.14 6.901-26.46 9.092-6.16-4.689-11.31-10.799-15.68-17.152-8.19-11.915-17.92-27.411-15.18-42.504Z"/><path fill="#DE2625" d="M293.21 960.541c1.319-12.603 5.223-24.547 10.011-36.221 4.973-12.124 11.672-30.298 24.874-35.412 6.495-2.516 11.714-.711 17.641 2.076 5.553 2.987 12.121 6.146 14.198 12.598 4.609 14.324-3.737 41.051-10.722 53.63-2.012 3.623-5.138 8.055-9.364 9.249-7.258 2.049-16.789-4.1-23.922-5.664-7.542-.358-15.163-.213-22.716-.256Z"/><path fill="#AC161E" d="M345.736 890.984c5.553 2.987 12.121 6.146 14.198 12.598 4.609 14.324-3.737 41.051-10.722 53.63-2.012 3.623-5.138 8.055-9.364 9.249-7.258 2.049-16.789-4.1-23.922-5.664.062-.053.123-.107.187-.159 1.258-1.025 2.289-1.994 3.074-3.439 3.713-6.834 5.778-14.983 8.749-22.209 6.06-14.74 13.09-28.71 17.8-44.006Z"/><path fill="#DE2625" d="M933.338 895.08c6.272-3.401 13.323-8.281 20.767-5.991 7.51 2.311 12.502 11.224 15.762 17.881a236.57 236.57 0 0 1 18.9 53.745c-4.852-.187-9.673-.437-14.51-.868-11.576.943-22.243 4.705-33.02 8.759-4.682-5.469-8.388-11.472-11.504-17.954-5.614-11.679-13.616-31.597-8.64-44.612 2.367-6.191 6.573-8.414 12.245-10.96Z"/><path fill="#AC161E" d="M941.237 968.606c-4.682-5.469-8.388-11.472-11.504-17.954-5.614-11.679-13.616-31.597-8.64-44.612 2.367-6.191 6.573-8.414 12.245-10.96 4.932 9.116 11.018 17.854 15.453 27.176 5.553 11.672 9.08 24.543 15.99 35.515 3.149.705 6.303 1.499 9.476 2.076-11.576.943-22.243 4.705-33.02 8.759Z"/><path fill="#DE2625" d="M825.652 983.577c.541-6.258 1.055-11.833 5.784-16.524 4.277-4.243 10.351-5.748 16.23-5.567 7.709.238 13.685 2.957 18.859 8.614.609 7.439.295 14.367-.639 21.766-4.93 22.364-15.176 44.314-35.06 57.094-1.562 1-3.134 2.06-4.823 2.84-6.337 4.45-11.986 7.64-19.565 9.51 1.594-14.16 6.509-27.1 10.473-40.68a416.908 416.908 0 0 0 8.741-37.053Z"/><path fill="#AC161E" d="M826.003 1051.8c-1.848-6.06-2.142-11.5-.207-17.58 5.795-18.21 23.686-33.8 40.09-42.354-4.93 22.364-15.176 44.314-35.06 57.094-1.562 1-3.134 2.06-4.823 2.84ZM825.652 983.577c.541-6.258 1.055-11.833 5.784-16.524 4.277-4.243 10.351-5.748 16.23-5.567 7.709.238 13.685 2.957 18.859 8.614-13.731 3.996-27.598 8.126-40.873 13.477ZM808.375 880.581c12.953 7.313 25.496 15.184 37.99 23.246 7.185 4.322 11.3 9.71 13.295 17.953 1.935 7.996 1.707 16.337 1.63 24.505-12.134.029-25.392.905-37.188-2.458a44.128 44.128 0 0 1-2.47-.899c-21.761-8.761-31.97-28.942-40.552-49.444 8.886-4.72 18.134-8.75 27.295-12.903Z"/><path fill="#DE2625" d="M846.365 903.827c7.185 4.322 11.3 9.71 13.295 17.953 1.935 7.996 1.707 16.337 1.63 24.505-12.134.029-25.392.905-37.188-2.458-1.88-8.876-5.526-21.607-.182-29.799 4.676-7.168 14.707-8.533 22.445-10.201ZM413.672 980.778a24.088 24.088 0 0 1-.549-7.33 10.78 10.78 0 0 1 4.294-7.987c8.439-6.369 24.708-2.753 34.269-1.495 1.089 5.207 1.631 10.594 2.364 15.864a570.3 570.3 0 0 0 22.82 84.48 359.248 359.248 0 0 1-18.342-10.69c-1.734-1.1-3.401-2.29-5.066-3.48-20.526-14.77-32.913-33.01-36.961-58.064-1.106-3.817-2.334-7.321-2.829-11.298Z"/><path fill="#AC161E" d="M416.501 992.076c16.575 14.004 33.419 28.074 43.561 47.694-.296 4.68-.609 9.24-1.534 13.85-1.734-1.1-3.401-2.29-5.066-3.48-20.526-14.77-32.913-33.01-36.961-58.064ZM413.672 980.778a24.088 24.088 0 0 1-.549-7.33 10.78 10.78 0 0 1 4.294-7.987c8.439-6.369 24.708-2.753 34.269-1.495 1.089 5.207 1.631 10.594 2.364 15.864-9.304-2.237-30.401-8.757-39.184-5.963-1.563 1.823-1.177 4.566-1.194 6.911ZM472.174 881.155c9.476 4.231 18.602 8.484 27.241 14.317-8.164 17.708-17.753 38.866-37.482 46.088-2.586.946-5.189 1.508-7.891 1.993-7.843 1.75-17.768 3.892-25.822 2.427-2.971-.54-5.612-1.812-7.232-4.464-2.741-4.487-1.295-10.671-.112-15.464 2.526-10.239 6.573-17.33 15.875-22.902 11.409-8.036 22.766-16.003 35.423-21.995Z"/><path fill="#DE2625" d="M436.751 903.15c6.418 1.033 13.498 1.897 17.761 7.448 4.06 5.285 3.35 12.574 2.353 18.754-.768 4.758-1.825 9.486-2.823 14.201-7.843 1.75-17.768 3.892-25.822 2.427-2.971-.54-5.612-1.812-7.232-4.464-2.741-4.487-1.295-10.671-.112-15.464 2.526-10.239 6.573-17.33 15.875-22.902ZM301.391 1011.77c-2.893-8.51-5.072-18.475-1.019-27.017 1.691-3.564 4.539-6.434 8.313-7.728 4.137-1.419 8.614-.801 12.477 1.131 7.438 3.719 12.262 11.21 14.647 18.973 2.3 7.481 2.745 15.581 2.726 23.371 4.388 18.16 8.132 36.12 10.891 54.61-24.616-15.98-37.14-36.75-48.035-63.34Z"/><path fill="#AC161E" d="M301.391 1011.77c-2.893-8.51-5.072-18.475-1.019-27.017 1.691-3.564 4.539-6.434 8.313-7.728 4.137-1.419 8.614-.801 12.477 1.131 7.438 3.719 12.262 11.21 14.647 18.973 2.3 7.481 2.745 15.581 2.726 23.371-7.07-6.25-16.604-12.84-26.417-13.01-4.367-.08-7.576 1.35-10.727 4.28Z"/><path fill="#DE2625" d="M941.849 1021.25c.002-4.57.175-9.16.86-13.68 1.562-10.298 5.878-20.875 14.641-27.083 3.982-2.82 8.953-4.765 13.889-3.84 3.302.619 6.009 2.584 7.885 5.339 4.823 7.085 3.936 16.757 2.648 24.794-11.557 28.36-27.074 51.07-51.607 69.88 3.184-18.7 7.288-36.98 11.684-55.41Z"/><path fill="#AC161E" d="M941.849 1021.25c.002-4.57.175-9.16.86-13.68 1.562-10.298 5.878-20.875 14.641-27.083 3.982-2.82 8.953-4.765 13.889-3.84 3.302.619 6.009 2.584 7.885 5.339 4.823 7.085 3.936 16.757 2.648 24.794-2.634-1.84-5.204-1.88-8.302-1.34-11.86 2.06-20.726 11.54-31.621 15.81Z"/><path fill="#DE2625" d="M1059.12 961.123c-3.61-13.124-10.97-33.461-4.93-46.39 1.92-4.101 5.24-7.015 9.49-8.531 7.39-2.637 14.47-.542 21.29 2.524 8.16 25.172 3.87 56.486-8.12 79.832-4.05 7.879-9.26 14.982-14.85 21.822-.88-16.21-.74-33.202-2.88-49.257Z"/><path fill="#AC161E" d="M1059.12 961.123c-3.61-13.124-10.97-33.461-4.93-46.39 1.92-4.101 5.24-7.015 9.49-8.531 7.39-2.637 14.47-.542 21.29 2.524-10.08 12.579-20.59 36.919-25.85 52.397Z"/><path fill="#DE2625" d="M195.647 905.597c8.765-.756 18.142-1.514 25.504 4.362 4.042 3.225 5.927 7.832 6.378 12.894.993 11.136-2.948 22.834-5.673 33.522-1.296 6.453-1.149 13.814-1.648 20.424-.762 10.092-1.91 20.166-2.952 30.231-15.25-16.419-22.867-36.849-25.775-58.861-1.59-12.031-3.752-32.214 4.166-42.572Z"/><path fill="#AC161E" d="M195.647 905.597c8.765-.756 18.142-1.514 25.504 4.362 4.042 3.225 5.927 7.832 6.378 12.894.993 11.136-2.948 22.834-5.673 33.522-2.633-4.583-5.16-9.169-7.239-14.033-5.16-12.072-8.678-27.94-18.97-36.745ZM922.395 701.607c3.08 3.58 6.347 6.993 9.583 10.431 3.875 2.854 11.619 7.299 12.37 12.33.166 1.116-.177 1.498-.602 2.479-.793.521-1.577 1.08-2.396 1.557-12.696 7.47-24.567 11.095-38.892 13.981 7.84-12.89 13.408-27.194 19.937-40.778Z"/><path fill="#DE2625" d="M931.978 712.038c3.875 2.854 11.619 7.299 12.37 12.33.166 1.116-.177 1.498-.602 2.479-.793.521-1.577 1.08-2.396 1.557-1.376-.547-2.756-1.099-4.097-1.727-2.81-1.316-6.462-3.315-7.338-6.566-.773-2.87.664-5.66 2.063-8.073Z"/><path fill="#AC161E" d="M351.25 707.389c7.467 5.55 22.35 28.319 28.757 37.27l-15.806-5.919c-11.558-4.352-22.895-9.175-34.255-14.011a735.74 735.74 0 0 0 21.304-17.34Z"/><path fill="#DE2625" d="M344.948 716.046c1.161.235 1.873.399 2.871 1.089.992.686.752.859.923 1.957-1.497 2.973-3.874 4.314-6.878 5.522-1.24-.385-2.263-.608-3.276-1.459-.782-.658-.503-.488-.615-1.721 1.578-2.434 4.559-3.86 6.975-5.388Z"/></svg>